<?xml version="1.0" encoding="utf-8"?>
<svg version="1.1" id="Layer_1" xmlns="http://www.w3.org/2000/svg"  x="0px" y="0px"
	 width="240" height="240" viewBox="0 0 420 420"  xml:space="preserve">
<style type="text/css">
	.st0{fill:#FFFFFF;}
	.st1{fill:#EE353A;}
	.st2{fill:#8C4927;}
	.st3{fill:#0B0C0D;}
	.st4{fill:#CAAB9C;}

	.bottle {fill: url(#bottle-gradient);}
	.bottle-slogan {fill: url(#bottle-slogan-gradient);}
	.background {fill: #F1EDEA;}
	.duke-nose {fill: url(#duke-nose-gradient);}
	.duke-body {fill: url(#duke-body-gradient);}
	.duke-pants {fill: #FFFFFF;}
	.bottle-slogan-letter {fill: #33FFCC;}
</style>
<defs>
	<linearGradient id="bottle-gradient" spreadMethod="pad" gradientTransform="rotate(-18)">
		<stop offset="25%" stop-color="#8C4927" />
		<stop offset="63%" stop-color="#DDA488" />
		<stop offset="70%" stop-color="#8C4927" />
	</linearGradient>
	<linearGradient id="bottle-slogan-gradient">
		<stop offset="30%" stop-color="#EE373A" />
		<stop offset="70%" stop-color="#EF4D4F" />
	</linearGradient>
	<radialGradient id="duke-nose-gradient" cx="0.55" cy="0.30" r="0.65">
		<stop offset="0" style="stop-color:#FBC8B4"/>
		<stop offset="1" style="stop-color:#ED1C24"/>
	</radialGradient>
	<linearGradient id="duke-body-gradient">
		<stop offset="20%" stop-color="#0A0C0C" />
		<stop offset="80%" stop-color="#202727" />
	</linearGradient>
</defs>
<path id="XMLID_13_" class="st0" d="M159.7,287.1c9.4-0.6,18-3.4,25.3-9.6c4.5-3.8,8.2-8.2,10.6-13.7c0.3-0.7,0.5-1.3,0.8-2
	c0.2-0.6,0.6-0.9,1.3-0.7c6.4,2.2,12.6,4.6,18.7,7.5c0.7,0.4,1.2,0.9,1.4,1.7c1.2,4.8,2.2,9.7,3.1,14.6c0.8,4.3,1.6,8.6,2.1,12.9
	c0.8,6.1,1.3,12.2,0.9,18.3c-0.7,11.5-2.5,22.8-5.8,33.9c-1.3,4.3-2.9,8.4-5.5,12.1c-0.9,1.2-1.9,2.4-3.6,2.5
	c-1.4,0.1-2.5-0.6-3.6-1.4c-2.8-2.1-5-4.9-7-7.7c-7.5-10.9-17.8-17.9-30.2-22c-0.7-0.2-1.4-0.4-2.1-0.6c0.6-3.7,0.4-7.4-0.1-11.1
	c-0.5-4.2-0.7-8.4-1.4-12.6c-0.6-3.6-1.7-7-2.5-10.5c-0.8-3.6-1.5-7.3-2.4-10.9C159.7,287.4,159.7,287.3,159.7,287.1z"/>
<path id="XMLID_4_" class="st1" d="M125.1,162.1c0.1-0.2,0.2-0.4,0.4-0.4c0.2,0,0.2,0.3,0.2,0.5c0.7,4.3,1.3,8.7,2,13
	c1.2,7.5,2.3,15,3.5,22.6c0.2,1.3,0.4,2.5,0.6,3.8c0.1,0.5-0.3,0.6-0.5,0.8c-3.7,3.2-7.3,6.3-11,9.5c-14.5,12.5-28.9,25-43.4,37.5
	c-8.2,7-16.3,14.1-24.1,21.5c-4.4,4.2-8.9,8.3-12.8,13c-0.1,0.1-0.2,0.2-0.3,0.2c-0.9-3.3-1.5-6.7-2.2-10.1
	c-1.5-7.2-3-14.3-4.4-21.5c-0.1-0.5-0.2-0.9,0.2-1.3c3.3-3.6,6.5-7.2,9.8-10.7c2.1-2.3,4.5-4.4,6.9-6.5c3.2-2.9,6.3-5.9,9.6-8.8
	c3.8-3.4,7.6-6.7,11.5-10.1c4.5-3.9,9-7.8,13.6-11.6c4.2-3.5,8.3-7.1,12.2-10.9c0.9-0.9,1.9-1.8,2.9-2.7c2.8-2.5,5.6-5,8.2-7.7
	c2.6-2.8,5.2-5.7,7.9-8.4c0.6-0.7,1.2-1.4,1.8-2.1C120,168.7,122.6,165.4,125.1,162.1z M57.8,235.9c1,1,1.5,2.2,2.2,3.3
	c0.6,1.1,1.2,2.2,2.2,3c1.2,1,2.5,1.3,4,0.7c2.5-1,4.2-3.8,3.8-6.4c-0.5-3.7-2.8-6.5-4.5-9.6c-1,0.8-1.8,1.6-2.6,2.4
	c-0.4,0.4-0.5,0.7,0,1.1c1.7,1.5,3.1,3.2,4.1,5.2c0.5,1,0.9,2.1,0.7,3.2c-0.2,1.3-1,2.1-2.1,2.5c-1.1,0.3-1.9-0.4-2.5-1.2
	c-0.6-0.7-1-1.6-1.3-2.4c-0.6-1.6-1.3-3.2-2-5c-0.2,0.3-0.3,0.5-0.4,0.6c-1.1,1.2-1.1,1.2-2-0.1c-2.4,2.9-5.1,5.5-7.9,8
	c-0.5,0.5-1.6,0.7-1.5,1.4c0.1,0.7,0.8,1.3,1.3,2c0.3,0.5,0.6,0.4,1,0c0.7-0.8,1.5-1.5,2.2-2.3c0.3-0.4,0.5-0.3,0.9,0
	c0.8,0.7,1.5,1.4,2.1,2.2c1.7,2.2,3.1,4.7,4.5,7.2c0.3,0.5,0.5,0.7,1,0.2c0.5-0.5,1.1-1,1.7-1.5c0.2-0.2,0.4-0.3,0-0.6
	c-3.2-2.6-5.2-6.1-7.3-9.5c-0.4-0.6-0.4-1,0.1-1.6C56,237.9,56.8,236.9,57.8,235.9z M73.1,235.8c0.1-0.2,0.2-0.2,0.3-0.3
	c0.7-0.8,0.8-1.8,0.1-2.8c-0.5-0.7-1-1.1-1.9-0.9c-0.8,0.2-1.4,1.3-1.3,2.4c0,0.3,0,0.5,0.1,0.8c1.1,4,6.1,5.5,9.1,2.7
	c1.7-1.5,2.7-3.4,3.2-5.5c0.8-3.9-1.2-6-5.1-5.4c-0.5,0.1-0.9,0.3-1.5,0.2c0.4-0.8,0.9-1.4,1.2-2.2c0.4-1,0.5-2-0.1-2.9
	c-1-1.8-2.7-2.2-4.7-1.2c-2,1.1-3.7,2.6-5.3,4.3c-0.2,0.2-0.3,0.4-0.1,0.8c0.3,0.6,0.6,1.1,0.9,1.7c0.4-0.3,0.7-0.4,0.9-0.7
	c0.6-0.6,0.9-0.4,1.3,0.2c1.1,1.7,2.4,3.4,3.4,5.2c0.6,1,1.2,0.6,1.8,0.2c0.8-0.5-0.2-0.7-0.2-1.1c0-0.3-0.5-0.5-0.2-0.8
	c0.8-0.8,1.7-1.5,2.9-1.5c1,0,1.5,0.7,1.8,2.1c0.5,2.5-0.8,5.2-2.9,5.7C75.6,237.2,74.4,236.5,73.1,235.8z M87.2,217.7
	c0.4-0.6,0.7-1.1,0.9-1.6c0.6-1.1,0.9-2.3,0.3-3.5c-1-1.9-2.8-2.4-4.9-1.3c-1.7,0.9-3.1,2.3-4.6,3.6c-0.8,0.7-0.8,1.2-0.4,2.2
	c0.5,0.9,0.8,1,1.5,0.3c0.6-0.7,0.9-0.4,1.3,0.2c1.2,1.8,2.4,3.6,3.6,5.4c0.6,0.9,1.2,0.1,1.7-0.1c0.6-0.2,0.1-0.6-0.1-0.8
	c-0.7-0.7-0.4-1.2,0.3-1.6c0.3-0.2,0.6-0.4,0.9-0.6c1.5-0.8,2.7-0.2,3.1,1.4c0.4,1.8,0.1,3.4-1,4.8c-0.8,1.1-2,1.5-3.3,1.3
	c-0.9-0.2-1.7-0.5-2.4-1.1c0.1-0.1,0.1-0.2,0.2-0.3c0.8-0.9,0.8-1.8,0.1-2.9c-0.5-0.7-1.1-1.1-1.9-0.8c-0.8,0.3-1.4,1.4-1.3,2.6
	c0.1,0.6,0.2,1.1,0.5,1.6c0.7,1.1,1.6,2,2.7,2.6c1.6,0.9,3.1,0.8,4.7,0c2.8-1.5,5-5.6,4.5-8.8c-0.2-1.6-1.2-2.6-2.8-3
	C89.8,217.2,88.5,217.6,87.2,217.7z M47.5,259.1c0.2-0.2,0.4-0.3,0.6-0.5c0.4-0.5,0.4-1.1,0.1-1.7c-0.2-0.5-0.7-0.7-1.2-0.6
	c-1.5,0.1-2.7,1.6-2.5,3.2c0.1,1.5,1.4,2.4,2.9,2.3c0.8-0.1,1.6-0.4,2.3-0.9c2.2-1.6,3.5-3.8,3.8-6.5c0.2-1.7-0.2-3.2-1.7-4.3
	c-1.4-1-2.8-0.4-4.1,0.2c-0.7,0.3-1.4,0.7-2.2,0.9c-0.7,0.2-1.3,0.1-1.8-0.4c-0.5-0.6-0.7-1.3-0.4-2c0.3-0.8,0.9-1.3,1.6-1.7
	c1-0.5,1.2-0.4,1.3,0.7c0,0.7,0.2,1.1,1,1c0.9-0.1,1.8-1.3,1.7-2.5c-0.1-1.4-0.8-2-2-1.9c-3.3,0.4-7,4.7-5.4,8.6
	c0.8,1.9,1.8,2.4,3.7,1.7c1-0.4,1.9-0.8,2.9-1.2c1.5-0.5,2.8,0,3.4,1.4c0.7,1.5-0.4,3.9-2,4.5C48.8,259.7,48.2,259.7,47.5,259.1z
	 M107.7,192.6c0.4,0.3,0.7,0.5,1,0.9c0.5,0.6,0.8,0.5,1.3,0c1.3-1.2,2.6-2.4,3.9-3.5c0.3-0.2,0.5-0.6,0.8-0.1c1.7,2.5,3.6,4.9,5,7.7
	c0.4,0.8,0.7,1.6,0.6,2.5c-0.1,1.2-1.1,2.3-2.4,2.4c-0.9,0.1-1.6-0.3-2-1.3c0.7,0,1.4-0.1,1.8-0.7c0.6-0.8,0.5-1.9-0.1-2.8
	c-0.6-0.8-1.6-1-2.6-0.6c-1,0.5-1.7,1.3-1.9,2.4c-0.4,2.6,2.3,5.2,4.9,4.6c1.8-0.4,2.9-1.6,3.9-3c0.7-1,0.8-2,0.5-3.2
	c-0.4-1.1-1-2.2-1.6-3.1c-1.4-2.1-2.8-4.2-4.3-6.3c-0.4-0.5-0.5-1,0.1-1.4c0.4-0.2,0.3-0.5,0.1-0.9c-0.3-0.4-0.5-0.8-0.8-1.3
	c-0.3-0.6-0.5-0.5-0.9-0.1C112.6,187.4,110.2,189.9,107.7,192.6z M97.6,219.5c0.2-0.3,0.3-0.6,0.4-0.8c0.3-1-0.1-1.9-0.8-2.6
	c-0.5-0.5-1-0.7-1.7-0.4c-0.8,0.4-1.4,1-1.5,1.9c-0.1,1.5,1.5,3.5,2.9,3.9c1.5,0.4,3-0.5,3.6-2.3c0.5-1.4,0.5-2.8,0.2-4.2
	c-0.6-3.1-1.6-6.2-2.4-9.3c-0.5-1.9-1-3.8-1.6-6c-0.6,0.7-1,1.3-1.5,1.7c-0.6,0.5-0.7,1-0.3,1.7c1.7,3.1,2.6,6.4,3.4,10
	c-2.2-2.1-4.3-4.1-5.8-6.6c-0.3-0.5-0.4-0.6-0.9-0.1c-0.7,0.8-1.5,1.6-2.3,2.5c1.6,1.2,3.2,2.2,4.8,3.4c1.8,1.4,3.6,2.8,4.8,4.8
	C99.8,218.5,99.4,219.2,97.6,219.5z M102.8,205.5c-0.3-2.9-0.6-5.7-1-8.5c-0.1-0.7-0.2-1.3-0.7-1.8c-0.2-0.2-0.5-0.4-0.8-0.2
	c-0.3,0.2-0.2,0.4-0.2,0.7c0.1,0.6,0.2,1.3,0.3,1.9c0.5,2.8,0.9,5.7,1.6,8.4c0.3,1.2,0.4,1.2,1.2,0.3c1-0.9,1.9-1.9,2.9-2.8
	c0.8-0.8,0.9-0.8,1.4,0.2c1.2,2,2,4.2,2.6,6.5c0.2,0.8,0.5,0.8,1,0.3c0.6-0.6,1.2-1.2,1.7-1.7c0.3-0.3,0.4-0.5,0.1-0.9
	c-1.2-1.8-2-3.9-3.1-5.8c-0.4-0.8-0.7-1.4,0.2-2.1c0.5-0.3,0.2-0.7-0.1-1c-0.3-0.4-0.5-0.2-0.7,0c-0.5,0.4-0.6,0.1-0.8-0.3
	c-0.3-0.7-0.1-1.5-0.5-2.2c-0.7,0.6-1.3,1.1-1.9,1.6c-1.5,1.3-1.5,1.3-0.4,2.9c0.2,0.3,0.6,0.6,0.2,1.1
	C105,203.2,104.1,204.4,102.8,205.5z"/>
<path id="XMLID_14_" class="st1" d="M129.7,153.8c0.1-0.2,0.2-0.4,0.4-0.4c0.2,0,0.2,0.3,0.2,0.5c0.7,4.3,1.3,8.7,2,13
	c1.2,7.5,2.3,15,3.5,22.6c0.2,1.3,0.4,2.5,0.6,3.8c0.1,0.5-0.3,0.6-0.5,0.8c-3.7,3.2-7.3,6.3-11,9.5c-14.5,12.5-28.9,25-43.4,37.5
	c-8.2,7-16.3,14.1-24.1,21.5c-4.4,4.2-8.9,8.3-12.8,13c-0.1,0.1-0.2,0.2-0.3,0.2c-0.9-3.3-1.5-6.7-2.2-10.1
	c-1.5-7.2-3-14.3-4.4-21.5c-0.1-0.5-0.2-0.9,0.2-1.3c3.3-3.6,6.5-7.2,9.8-10.7c2.1-2.3,4.5-4.4,6.9-6.5c3.2-2.9,6.3-5.9,9.6-8.8
	c3.8-3.4,7.6-6.7,11.5-10.1c4.5-3.9,9-7.8,13.6-11.6c4.2-3.5,8.3-7.1,12.2-10.9c0.9-0.9,1.9-1.8,2.9-2.7c2.8-2.5,5.6-5,8.2-7.7
	c2.6-2.8,5.2-5.7,7.9-8.4c0.6-0.7,1.2-1.4,1.8-2.1C124.6,160.3,127.2,157,129.7,153.8z M62.4,227.5c1,1,1.5,2.2,2.2,3.3
	c0.6,1.1,1.2,2.2,2.2,3c1.2,1,2.5,1.3,4,0.7c2.5-1,4.2-3.8,3.8-6.4c-0.5-3.7-2.8-6.5-4.5-9.6c-1,0.8-1.8,1.6-2.6,2.4
	c-0.4,0.4-0.5,0.7,0,1.1c1.7,1.5,3.1,3.2,4.1,5.2c0.5,1,0.9,2.1,0.7,3.2c-0.2,1.3-1,2.1-2.1,2.5c-1.1,0.3-1.9-0.4-2.5-1.2
	c-0.6-0.7-1-1.6-1.3-2.4c-0.6-1.6-1.3-3.2-2-5c-0.2,0.3-0.3,0.5-0.4,0.6c-1.1,1.2-1.1,1.2-2-0.1c-2.4,2.9-5.1,5.5-7.9,8
	c-0.5,0.5-1.6,0.7-1.5,1.4c0.1,0.7,0.8,1.3,1.3,2c0.3,0.5,0.6,0.4,1,0c0.7-0.8,1.5-1.5,2.2-2.3c0.3-0.4,0.5-0.3,0.9,0
	c0.8,0.7,1.5,1.4,2.1,2.2c1.7,2.2,3.1,4.7,4.5,7.2c0.3,0.5,0.5,0.7,1,0.2c0.5-0.5,1.1-1,1.7-1.5c0.2-0.2,0.4-0.3,0-0.6
	c-3.2-2.6-5.2-6.1-7.3-9.5c-0.4-0.6-0.4-1,0.1-1.6C60.6,229.6,61.4,228.6,62.4,227.5z M77.7,227.5c0.1-0.2,0.2-0.2,0.3-0.3
	c0.7-0.8,0.8-1.8,0.1-2.8c-0.5-0.7-1-1.1-1.9-0.9c-0.8,0.2-1.4,1.3-1.3,2.4c0,0.3,0,0.5,0.1,0.8c1.1,4,6.1,5.5,9.1,2.7
	c1.7-1.5,2.7-3.4,3.2-5.5c0.8-3.9-1.2-6-5.1-5.4c-0.5,0.1-0.9,0.3-1.5,0.2c0.4-0.8,0.9-1.4,1.2-2.2c0.4-1,0.5-2-0.1-2.9
	c-1-1.8-2.7-2.2-4.7-1.2c-2,1.1-3.7,2.6-5.3,4.3c-0.2,0.2-0.3,0.4-0.1,0.8c0.3,0.6,0.6,1.1,0.9,1.7c0.4-0.3,0.7-0.4,0.9-0.7
	c0.6-0.6,0.9-0.4,1.3,0.2c1.1,1.7,2.4,3.4,3.4,5.2c0.6,1,1.2,0.6,1.8,0.2c0.8-0.5-0.2-0.7-0.2-1.1c0-0.3-0.5-0.5-0.2-0.8
	c0.8-0.8,1.7-1.5,2.9-1.5c1,0,1.5,0.7,1.8,2.1c0.5,2.5-0.8,5.2-2.9,5.7C80.2,228.9,79,228.2,77.7,227.5z M91.8,209.4
	c0.4-0.6,0.7-1.1,0.9-1.6c0.6-1.1,0.9-2.3,0.3-3.5c-1-1.9-2.8-2.4-4.9-1.3c-1.7,0.9-3.1,2.3-4.6,3.6c-0.8,0.7-0.8,1.2-0.4,2.2
	c0.5,0.9,0.8,1,1.5,0.3c0.6-0.7,0.9-0.4,1.3,0.2c1.2,1.8,2.4,3.6,3.6,5.4c0.6,0.9,1.2,0.1,1.7-0.1c0.6-0.2,0.1-0.6-0.1-0.8
	c-0.7-0.7-0.4-1.2,0.3-1.6c0.3-0.2,0.6-0.4,0.9-0.6c1.5-0.8,2.7-0.2,3.1,1.4c0.4,1.8,0.1,3.4-1,4.8c-0.8,1.1-2,1.5-3.3,1.3
	c-0.9-0.2-1.7-0.5-2.4-1.1c0.1-0.1,0.1-0.2,0.2-0.3c0.8-0.9,0.8-1.8,0.1-2.9c-0.5-0.7-1.1-1.1-1.9-0.8c-0.8,0.3-1.4,1.4-1.3,2.6
	c0.1,0.6,0.2,1.1,0.5,1.6c0.7,1.1,1.6,2,2.7,2.6c1.6,0.9,3.1,0.8,4.7,0c2.8-1.5,5-5.6,4.5-8.8c-0.2-1.6-1.2-2.6-2.8-3
	C94.4,208.8,93.1,209.2,91.8,209.4z M52.1,250.8c0.2-0.2,0.4-0.3,0.6-0.5c0.4-0.5,0.4-1.1,0.1-1.7c-0.2-0.5-0.7-0.7-1.2-0.6
	c-1.5,0.1-2.7,1.6-2.5,3.2c0.1,1.5,1.4,2.4,2.9,2.3c0.8-0.1,1.6-0.4,2.3-0.9c2.2-1.6,3.5-3.8,3.8-6.5c0.2-1.7-0.2-3.2-1.7-4.3
	c-1.4-1-2.8-0.4-4.1,0.2c-0.7,0.3-1.4,0.7-2.2,0.9c-0.7,0.2-1.3,0.1-1.8-0.4c-0.5-0.6-0.7-1.3-0.4-2c0.3-0.8,0.9-1.3,1.6-1.7
	c1-0.5,1.2-0.4,1.3,0.7c0,0.7,0.2,1.1,1,1c0.9-0.1,1.8-1.3,1.7-2.5c-0.1-1.4-0.8-2-2-1.9c-3.3,0.4-7,4.7-5.4,8.6
	c0.8,1.9,1.8,2.4,3.7,1.7c1-0.4,1.9-0.8,2.9-1.2c1.5-0.5,2.8,0,3.4,1.4c0.7,1.5-0.4,3.9-2,4.5C53.4,251.4,52.8,251.4,52.1,250.8z
	 M112.3,184.2c0.4,0.3,0.7,0.5,1,0.9c0.5,0.6,0.8,0.5,1.3,0c1.3-1.2,2.6-2.4,3.9-3.5c0.3-0.2,0.5-0.6,0.8-0.1c1.7,2.5,3.6,4.9,5,7.7
	c0.4,0.8,0.7,1.6,0.6,2.5c-0.1,1.2-1.1,2.3-2.4,2.4c-0.9,0.1-1.6-0.3-2-1.3c0.7,0,1.4-0.1,1.8-0.7c0.6-0.8,0.5-1.9-0.1-2.8
	c-0.6-0.8-1.6-1-2.6-0.6c-1,0.5-1.7,1.3-1.9,2.4c-0.4,2.6,2.3,5.2,4.9,4.6c1.8-0.4,2.9-1.6,3.9-3c0.7-1,0.8-2,0.5-3.2
	c-0.4-1.1-1-2.2-1.6-3.1c-1.4-2.1-2.8-4.2-4.3-6.3c-0.4-0.5-0.5-1,0.1-1.4c0.4-0.3,0.3-0.5,0.1-0.9c-0.3-0.4-0.5-0.8-0.8-1.3
	c-0.3-0.6-0.5-0.5-0.9-0.1C117.2,179,114.8,181.6,112.3,184.2z M102.2,211.1c0.2-0.3,0.3-0.6,0.4-0.8c0.3-1-0.1-1.9-0.8-2.6
	c-0.5-0.5-1-0.7-1.7-0.4c-0.8,0.4-1.4,1-1.5,1.9c-0.1,1.5,1.5,3.5,2.9,3.9c1.5,0.4,3-0.5,3.6-2.3c0.5-1.4,0.5-2.8,0.2-4.2
	c-0.6-3.1-1.6-6.2-2.4-9.3c-0.5-1.9-1-3.8-1.6-6c-0.6,0.7-1,1.3-1.5,1.7c-0.6,0.5-0.7,1-0.3,1.7c1.7,3.1,2.6,6.4,3.4,10
	c-2.2-2.1-4.3-4.1-5.8-6.6c-0.3-0.5-0.4-0.6-0.9-0.1c-0.7,0.8-1.5,1.6-2.3,2.5c1.6,1.2,3.2,2.2,4.8,3.4c1.8,1.4,3.6,2.8,4.8,4.8
	C104.4,210.2,104,210.9,102.2,211.1z M107.4,197.2c-0.3-2.9-0.6-5.7-1-8.5c-0.1-0.7-0.2-1.3-0.7-1.8c-0.2-0.2-0.5-0.4-0.8-0.2
	c-0.3,0.2-0.2,0.4-0.2,0.7c0.1,0.6,0.2,1.3,0.3,1.9c0.5,2.8,0.9,5.7,1.6,8.4c0.3,1.2,0.4,1.2,1.2,0.3c1-0.9,1.9-1.9,2.9-2.8
	c0.8-0.8,0.9-0.8,1.4,0.2c1.2,2,2,4.2,2.6,6.5c0.2,0.8,0.5,0.8,1,0.3c0.6-0.6,1.2-1.2,1.7-1.7c0.3-0.3,0.4-0.5,0.1-0.9
	c-1.2-1.8-2-3.9-3.1-5.8c-0.4-0.8-0.7-1.4,0.2-2.1c0.5-0.3,0.2-0.7-0.1-1c-0.3-0.4-0.5-0.2-0.7,0c-0.5,0.4-0.6,0.1-0.8-0.3
	c-0.3-0.7-0.1-1.5-0.5-2.2c-0.7,0.6-1.3,1.1-1.9,1.6c-1.5,1.3-1.5,1.3-0.4,2.9c0.2,0.3,0.6,0.6,0.2,1.1
	C109.7,194.9,108.7,196.1,107.4,197.2z"/>
<path id="XMLID_5_" class="st1" d="M145.3,211.5c3.4-0.7,6.8-0.9,10.2-0.6c9.4,0.8,17.4,4.4,23.9,11.4c3.8,4.1,6.4,8.9,7.2,14.5
	c1.4,9.7-1.5,17.9-8.7,24.6c-5.1,4.8-11.2,7.7-18.1,9c-2,0.4-4,0.5-6,0.7c-0.5-1.4-0.6-2.9-0.8-4.3c-0.5-3.3-1-6.6-1.4-9.9
	c-0.7-4.8-1.4-9.5-2.1-14.3c-0.7-4.6-1.3-9.2-2-13.8c-0.6-4.6-1.2-9.2-1.8-13.7C145.5,213.8,145.2,212.7,145.3,211.5z"/>
<path id="XMLID_1_" class="st1" d="M151.6,245.8c3.4-0.7,6.8-0.9,10.2-0.6c9.4,0.8,17.4,4.4,23.9,11.4c3.8,4.1,6.4,8.9,7.2,14.5
	c1.4,9.7-1.5,17.9-8.7,24.6c-5.1,4.8-11.2,7.7-18.1,9c-2,0.4-4,0.5-6,0.7c-0.5-1.4-0.6-2.9-0.8-4.3c-0.5-3.3-1-6.6-1.4-9.9
	c-0.7-4.8-1.4-9.5-2.1-14.3c-0.7-4.6-1.3-9.2-2-13.8c-0.6-4.6-1.2-9.2-1.8-13.7C151.8,248.1,151.5,247,151.6,245.8z"/>
<path id="XMLID_42_" class="st0" d="M159.7,287.1c9.4-0.6,18-3.4,25.3-9.6c4.5-3.8,8.2-8.2,10.6-13.7c0.3-0.7,0.5-1.3,0.8-2
	c0.2-0.6,0.6-0.9,1.3-0.7c6.4,2.2,12.6,4.6,18.7,7.5c0.7,0.4,1.2,0.9,1.4,1.7c1.2,4.8,2.2,9.7,3.1,14.6c0.8,4.3,1.6,8.6,2.1,12.9
	c0.8,6.1,1.3,12.2,0.9,18.3c-0.7,11.5-2.5,22.8-5.8,33.9c-1.3,4.3-2.9,8.4-5.5,12.1c-0.9,1.2-1.9,2.4-3.6,2.5
	c-1.4,0.1-2.5-0.6-3.6-1.4c-2.8-2.1-5-4.9-7-7.7c-7.5-10.9-17.8-17.9-30.2-22c-0.7-0.2-1.4-0.4-2.1-0.6c0.6-3.7,0.4-7.4-0.1-11.1
	c-0.5-4.2-0.7-8.4-1.4-12.6c-0.6-3.6-1.7-7-2.5-10.5c-0.8-3.6-1.5-7.3-2.4-10.9C159.7,287.4,159.7,287.3,159.7,287.1z"/>
<path id="XMLID_8_" class="st1" d="M173,223.7c3.4-0.7,6.8-0.9,10.2-0.6c9.4,0.8,17.4,4.4,23.9,11.4c3.8,4.1,6.4,8.9,7.2,14.5
	c1.4,9.7-1.5,17.9-8.7,24.6c-5.1,4.8-11.2,7.7-18.1,9c-2,0.4-4,0.5-6,0.7c-0.5-1.4-0.6-2.9-0.8-4.3c-0.5-3.3-1-6.6-1.4-9.9
	c-0.7-4.8-1.4-9.5-2.1-14.3c-0.7-4.6-1.3-9.2-2-13.8c-0.6-4.6-1.2-9.2-1.8-13.7C173.2,226,172.9,224.8,173,223.7z"/>
<path id="XMLID_14683_" class="bottle" d="M28.2,297.7c0.1-1-0.1-1.9-0.4-2.8c0-0.4-0.1-0.8-0.1-1.2c-0.4-2.7-0.7-5.4-1.1-8.1
	c-1.3-8.8-2.6-17.6-3.9-26.4c-1.3-8.3-2.6-16.6-3.8-24.9c-1.2-8.1-2.6-16.2-3.9-24.4c-0.9-5.7-1.9-11.4-2.9-17.1
	c-0.6-4-1.2-8-1.8-12c-0.7-4.5-1.5-8.9-2.2-13.3c-0.8-5-1.6-9.9-2.6-14.9c-0.6-2.9-1.5-5.7-2.2-8.5c-1-4.1-1.5-8.4-1.8-12.6
	c-0.5-9.7,0.4-19.3,4-28.4c3.2-8.2,7.4-15.7,13.2-22.4c3.6-4.2,6.3-8.8,8.3-13.9c2.4-5.9,2.9-12,2.2-18.2c-0.3-2.2-0.4-4.4-0.8-6.6
	c-0.2-1.3-0.8-2.2-2-2.9c-1.9-1-2.8-3.1-2.2-5.2c0.5-1.8,1.1-3.5,1.6-5.3c0.3-0.9,0.4-1.8,0.5-2.7c0.1-0.7-0.2-0.7-0.7-0.7
	c-1.1,0.1-2.2,0.2-3.2,0.3c-0.6,0-1.1-0.2-1.2-0.8c-0.2-4.1-1-8.3,0.8-12.3c0.9-1.9,2.1-3.2,4.2-3.8c6.4-1.8,12.9-2.9,19.5-4
	C52.5,3.6,59.4,2.8,66.3,2c3.4-0.4,6.8-0.5,10.1-0.9c1.5-0.2,2.9,0.3,4.3,0.9c0.2,0.1,0.5,0.3,0.6,0.5c1.8,2.6,3.6,5.2,4.2,8.4
	c0.2,1.4,0.7,2.7,0.8,4.2c0.1,1.2-0.4,2.1-1.6,2.4c-0.6,0.1-1.2,0.3-1.7,0.3c-0.8,0.1-0.9,0.3-0.4,1c1.1,1.4,2.1,2.9,3.1,4.3
	c1.7,2.4,1.7,4.3-0.1,6.6c-0.6,0.9-1,1.7-0.8,2.8c0.8,3.9,1.1,8,2.2,11.8c1.5,5.4,4.5,10,8.3,14.2c3.7,4.1,8.3,6.8,12.7,10
	c6.7,4.8,12.6,10.3,17.4,16.9c4.2,5.7,7.4,11.9,9.5,18.6c1.7,5.7,3.4,11.3,3.6,17.3c0.4,9,1.7,18,2.8,26.9
	c1.1,9.1,2.4,18.3,3.7,27.4c0.2,1.2,0.1,2.5,0.6,3.7c0.4,2.9,0.7,5.7,1.1,8.6c0.4,3.3,0.9,6.6,1.3,9.8c0.5,3.6,0.9,7.2,1.3,10.8
	c0.5,3.5,1,6.9,1.5,10.4c0.3,1.8,0.5,3.7,0.8,5.5c-0.1,1.2,0.2,2.3,0.4,3.4c0.6,4.6,1.2,9.2,1.8,13.7c0.6,4.6,1.3,9.2,2,13.8
	c0.7,4.8,1.4,9.5,2.1,14.3c0.5,3.3,0.9,6.6,1.4,9.9c0.2,1.4,0.3,2.9,0.8,4.3c0.2,2.4,0.8,4.7,1.5,6.9c0,0.2,0,0.3,0,0.5
	c0.9,3.6,1.6,7.3,2.4,10.9c0.8,3.5,1.9,7,2.5,10.5c0.7,4.2,0.9,8.4,1.4,12.6c0.4,3.7,0.6,7.4,0.1,11.1c0,1.3-0.2,2.7-0.3,4
	c-0.1,1.5-0.3,2.9-0.5,4.4c-0.2,1.1-0.4,2.2-0.6,3.3c-1.1,5.8-4.1,9.9-9.9,11.8c-2.6,0.8-5.2,1.8-7.9,2.4c-1.6,0.4-3.3,0.8-4.9,1.2
	c-1.1,0.3-2.2,0.8-3.4,0.7c-0.3,0-0.6,0.1-0.8,0.2c-1,0.6-2.2,0.8-3.3,0.6c-0.5-0.1-0.9,0-1.3,0.4c-1,0.9-2.1,1.1-3.3,0.7
	c-0.5-0.2-1-0.2-1.5,0.2c-0.9,0.8-1.9,0.9-3,0.6c-0.7-0.2-1.4-0.1-2,0.3c-1.1,0.7-2.3,1-3.6,0.6c-0.6-0.2-1.2,0-1.7,0.4
	c-1.1,0.7-2.2,1-3.5,0.6c-0.7-0.2-1.4-0.1-2.1,0.4c-0.9,0.7-1.9,0.8-3,0.5c-0.9-0.3-1.8-0.2-2.5,0.3c-1.1,0.8-2.3,0.8-3.5,0.5
	c-0.8-0.2-1.5-0.1-2.2,0.4c-0.9,0.7-2,0.8-3.1,0.4c-0.9-0.3-1.7-0.2-2.5,0.4c-1,0.7-2.1,0.9-3.3,0.4c-0.7-0.2-1.3-0.1-1.9,0.2
	c-1.2,0.6-2.4,0.9-3.7,0.4c-0.4-0.1-0.9-0.1-1.3,0.2c-1.2,0.7-2.5,0.8-3.9,0.5c-0.5-0.1-1-0.1-1.4,0.2c-0.9,0.5-1.9,0.5-2.9,0.5
	c-1.3,0-2.6,0.2-3.9,0.4c-2.9,0.5-5.9,0.7-8.8,0.9c-4.2,0.3-8.4,0.6-12.5,0.1c-5.3-0.6-9.2-3.5-11.6-8.2c-1.8-3.5-3.3-7-4.9-10.6
	c-0.4-0.9-1-1.5-1.5-2.3c-0.6-0.9-0.9-1.9-0.6-3c0.1-0.5,0-0.9-0.1-1.4c-1.4-5.3-2.8-10.7-3.8-16.1c-0.6-3.1-0.5-6.3-0.7-9.4
	c-0.2-2-0.5-4-0.8-6.1c-0.4-2.5-0.1-5.1-0.3-7.6c0-0.3,0.1-0.5-0.1-0.8c0-2.5-0.4-4.9-0.7-7.3C28.9,301.3,28.5,299.5,28.2,297.7z
	 M43.9,367.4c-0.1-0.1-0.1-0.2-0.2-0.4c-1.7-3.8-3.5-7.6-5.2-11.5c-0.1,0.1-0.2,0.1-0.3,0.2c1.6,3.9,3.1,7.9,5.3,11.5
	c0.1,0.1,0.1,0.3,0.2,0.4c0.1,0.2,0.2,0.3,0.3,0.5c0.5,1.1,1.2,2,2.1,2.7c0.1-0.1,0.1-0.1,0.2-0.2c-0.7-0.9-1.4-1.9-2.1-2.8
	C44.1,367.8,44,367.6,43.9,367.4z M11.8,93.1c0.1,0,0.2-0.1,0.1-0.2c2.6-4.3,5.7-8.2,9.3-11.7c1.4-1.4,2.4-2.9,3.3-4.6
	c1.8-3.7,3.3-7.4,4.5-11.3c1.4-4.4,1.9-8.9,1.7-13.5c0-0.2,0-0.4-0.4-0.3c0,0.6,0,1.2,0,1.9c0,4-0.7,7.9-1.7,11.8
	c-2,6-5,11.4-9.1,16.2c-3,3.5-5.8,7.2-8,11.2c-0.2,0.2-0.3,0.4-0.3,0.6c-0.1,0.2-0.5,0.5-0.1,0.7c0.3,0.2,0.4-0.3,0.5-0.5
	C11.8,93.2,11.8,93.2,11.8,93.1z M10.8,94.7c0.1-0.1,0.2-0.1,0.2-0.2c0.1-0.2,0.5-0.5,0.1-0.7c-0.3-0.1-0.4,0.3-0.5,0.5
	c-0.1,0.1-0.1,0.2-0.1,0.3c0,0-0.1,0.1-0.1,0.1c-0.1,0.1-0.2,0.1-0.3,0.2c-2.5,4.3-4.3,9-5.6,13.8c-1.1,4.1-1.5,8.4-2.1,12.6
	c-0.2,1.1-0.1,2.2-0.2,3.5c0.6-0.4,0.5-0.8,0.5-1.2c0.2-4.3,0.9-8.6,1.8-12.8c0.7-3.3,2-6.4,3.3-9.6c0.9-2.2,2-4.2,3-6.3
	C10.8,94.9,10.8,94.8,10.8,94.7z M167,329.6c0,2.2,0,4.3,0,6.5c0.1,0,0.2,0,0.2,0c0.3-2.2,0.6-4.3,0-6.5c-0.5-2.3-0.4-4.7-0.6-7.1
	c-0.5-6.1-1.2-12.2-3-18.1c-1-3.3-1.3-6.9-2.2-10.2c-1.9-7-3.1-14.2-4.1-21.3c-2.3-16.6-4.9-33.1-7-49.7c-1.7-13-3.4-25.9-5.2-38.9
	c-1.6-11.7-3.1-23.5-4.7-35.2c-0.8-6.2-1.7-12.4-2.4-18.6c-0.4-3.9-0.3-7.9-0.9-11.8c-1.4-9.9-4.3-19.3-9.5-27.9
	c-5.7-9.4-13.5-16.9-22.7-23c-3.5-2.3-6.9-4.6-9.8-7.6c-4.2-4.5-7.6-9.4-9.2-15.3c-1.1-3.9-1.6-7.9-2.3-11.8c-0.3-1.5-0.1-2.6,1-3.7
	c1.4-1.4,1.4-3,0.5-4.7c-0.3-0.5-0.6-1-1-1.5c-1-1.3-2-2.7-2.9-4c-0.7-1.1-0.4-1.8,0.9-2c0.6-0.1,1.2-0.2,1.8-0.3
	c1-0.1,1.3-0.7,1.2-1.6c-0.3-3.6-1.6-6.8-3.2-10c-1-1.9-2.6-2.7-4.7-2.7c-1.2,0-2.4,0.1-3.6,0.2c-5.1,0.4-10.1,0.8-15.1,1.5
	c-4.1,0.6-8.3,1.3-12.4,1.9C39.3,6.7,32.6,8,26,9.9c-1.1,0.3-1.9,0.8-2.4,1.9c-0.7,1.4-1.3,2.9-1.5,4.5c-0.3,2,0,4,0.1,6
	c0,2.4,0.1,2.4,2.4,2.2c2.8-0.2,3,0,2.7,2.9c-0.7,2-1.4,4-2,6c-0.8,2.6,0,4.4,2.5,5.6c0.9,0.4,1.3,1.1,1.4,2c0,0.4,0.1,0.8,0.4,1.3
	c0.2-0.8-0.1-1.3-0.1-1.9c0-0.7,0.5-1.1,0.9-1.6c-0.5-0.3-1-0.3-1.5-0.3c-2.4-0.4-3.6-1.8-3.3-3.9c0.1-0.8,0.4-1.5,0.6-2.3
	c0.5-1.6,1.2-3.1,1.4-4.8c0-0.2,0.1-0.4,0.1-0.6c0.2-0.7-0.2-1.6,0.3-2.2c0.6-0.6,1.5-0.3,2.3-0.5c3-0.9,6.1-1.2,9.1-1.5
	c3.9-0.3,7.7-1,11.5-1.5c4.5-0.6,9-1.1,13.4-1.8c1.2-0.2,2.5-0.5,3.7-0.6c3.6-0.4,7.2-0.7,10.7-1.8c1.3-0.4,1.6-0.2,1.9,1.2
	c0.2,0.9,0.3,1.8,0.9,2.5c1,1,1.8,2.3,2.6,3.5c1.4,1.9,1.2,3.8-0.7,5.3c-0.5,0.4-1,0.7-1.5,1c-0.3,0.2-0.5,0.4-0.1,0.6
	c1.1,0.6,1.1,1.6,1.3,2.6c0.7,2.9,0.7,5.9,1.4,8.8c2.1,8.1,6.2,15.1,12,21.2c2.3,2.4,4.7,4.7,7.6,6.3c1.9,1,3.6,2.3,5.4,3.5
	c16.5,11.8,24.9,28.1,27.1,47.9c0.3,2.4,0,4.8,0.3,7.2c1.2,9.7,2.4,19.4,3.7,29.1c0.9,7,1.9,14,2.8,21.1c1.1,7.8,2.2,15.5,3.3,23.3
	c1.6,11.8,3.2,23.7,4.9,35.5c1.4,10.3,2.9,20.6,4.4,30.9c1.2,8.6,2.5,17.3,4.6,25.8c1.1,4.3,1.6,8.8,3,13.1c0.6,2,1,4,1.2,6.1
	c0.6,4.6,0.8,9.2,1.2,13.8C166.2,328,166.3,328.9,167,329.6z M43.9,299.4c8.8-0.7,17.6-1.8,26.3-2.9c8.6-1.1,17.2-2.4,25.7-3.7
	c13.2-2,26.4-4.3,39.4-7.4c4.1-1,8.1-2,12.2-2.9c0.8-0.2,1.2-0.6,1-1.4c-0.1-0.7-0.2-1.4-0.3-2.1c-1.8-12-3.7-24-5.5-36
	c-1.4-9.1-2.7-18.1-4-27.2c-1.4-9.7-2.7-19.4-4.1-29.1c-1.9-14.2-3.8-28.3-5.8-42.5c-0.2-1.7-0.3-1.8-2.1-1.4
	c-3.8,0.8-7.5,1.6-11.3,2.3c-13.8,2.7-27.7,5.2-41.6,7.2c-12.3,1.8-24.6,3.4-36.9,5.1c-5.7,0.8-11.5,1.4-17.2,2
	c-1.8,0.2-1.8,0.3-1.6,2c0.1,0.4,0.1,0.8,0.2,1.3c2,11.4,4,22.8,5.9,34.3c1.7,10.1,3.4,20.3,5,30.4c1.5,9,2.9,18,4.3,27
	c1.4,8.8,2.7,17.7,4,26.5c0.9,5.7,1.7,11.3,2.6,17c0.1,0.9,0.5,1.5,1.5,1.4C42.6,299.4,43.3,299.4,43.9,299.4z M21.7,90
	c-1,1.1-1.8,2-2.7,2.9c-2.5,2.3-4.5,5-6.3,7.8c-2.7,4.3-4,9.1-5.4,14c-0.7,2.5-0.7,5.1-1,7.6c-0.8,5.5-0.8,11.1,0.4,16.5
	c1.1,5,2.4,9.9,3.2,15c2.2,14.5,5,29,7.2,43.5c1.4,9.5,3.1,19,4.6,28.5c1.4,8.5,2.7,16.9,4.1,25.4c1.2,7.8,2.4,15.6,3.6,23.3
	c1.2,8,2.3,16,3.5,24c0.9,5.6,1.9,11.1,1.8,16.8c0,1-0.1,2,0.1,2.9c0.5,2.6,0.8,5.3,0.8,8c0.2,8.6,2.4,16.8,5.2,24.8
	c0.1,0.1,0,0.4,0.4,0.3c-0.3-1.1-0.6-2.2-1-3.3c-1.3-3.6-1.9-7.4-1.8-11.3c0.1-2.5-0.1-4.9-0.4-7.4c-0.5-3.9-1-7.8-1.6-11.7
	c0-0.3-0.2-0.6,0.2-0.7c0.6-0.1,0.4-0.6,0.4-0.9c-0.7-5.9-1.4-11.8-2.1-17.7c-1.5-11.8-3.2-23.6-4.8-35.5c-1-7.1-2.3-14.2-2.9-21.4
	c-0.2-2.2-0.8-4.3-0.9-6.5c0-1,0.2-2.1,0-3.1c-1.3-5.1-1.4-10.4-2.6-15.5c-1-4.4-1.3-8.9-2.3-13.3c-1-4.4-1.6-8.9-2.3-13.4
	c-0.5-3.6-0.7-7.2-1.2-10.8c-0.7-4.9-1.4-9.9-2.3-14.8c-0.7-4.1-1.5-8.3-2.4-12.4c-1.1-4.7-1.5-9.5-2.4-14.2c-0.4-2-0.8-4-0.6-6
	c0.2-1.8,0.2-3.6,0.3-5.3c0.1-1.3,0.1-2.6,0.3-3.8c0.6-3.6,1.4-7.1,3-10.4c0.5-1.1,1-2.2,0.6-3.5c-0.2-0.5,0.1-0.9,0.6-1.2
	c0.4-0.2,0.8-0.6,0.6-1.1c-0.5-1,0-1.8,0.5-2.6c1.1-1.7,2.3-3.4,3.2-5.2c0.8-1.6,1.3-3.3,2.4-4.7c0.3-0.3,0.4-0.7,0-0.9
	c-0.7-0.4-0.5-0.8-0.3-1.3C21.6,91.1,21.8,90.8,21.7,90z M36.5,352.7c0.6-0.3,0.5-0.7,0.5-1c0.1-1.1-0.3-2.1-0.6-3.2
	c-0.8-3.1-1.8-6.2-2.5-9.3c-0.9-4.3-1.4-8.7-1.6-13.1c-0.1-2.7-0.7-5.4-0.8-8.2c-0.2-6.4-0.7-12.7-1.7-19c-0.9-6-1.8-11.9-2.7-17.9
	c-0.9-6.1-1.8-12.2-2.7-18.3c-1.3-8.2-2.5-16.4-3.8-24.6c-1.3-8.2-2.6-16.4-3.9-24.6c-1.4-8.7-2.9-17.5-4.2-26.2
	c-1.7-10.9-3.6-21.8-5.4-32.6c-0.1-0.3-0.1-0.7-0.5-1c0,0.3,0,0.5,0,0.7c1.1,6.6,2.3,13.2,3.3,19.8c1.1,6.9,2.2,13.7,3.3,20.6
	c1.5,9.6,3.1,19.3,4.6,28.9c1.5,9.2,2.9,18.3,4.3,27.5c1.9,12.1,3.7,24.2,5.5,36.4c0.9,5.7,1.8,11.5,2.5,17.2
	c0.7,6.2,0.9,12.5,1.4,18.8c0.5,6.3,1.2,12.6,2.5,18.7C34.9,345.6,36.6,348.9,36.5,352.7z M133.5,121.3c0-6-1.4-11.8-4-17.2
	C131.5,109.7,132.4,115.5,133.5,121.3z M2.3,127c-0.2,6.7,0.7,13.7,1.8,15.1C3,137.1,2.8,132.1,2.3,127z M167,337.2
	c-0.2,0-0.3-0.1-0.5-0.1c-0.2,4.1-0.6,8.1-1.2,12.1C166.6,345.3,166.7,341.2,167,337.2z M128.5,102.4c0.3-1.4-0.5-2.5-1.1-3.6
	c-0.1-0.1-0.2-0.2-0.3-0.1c-0.2,0.2-0.2,0.4-0.1,0.5C127.4,100.3,128,101.4,128.5,102.4z M43.3,357.1c-0.4-1.2-0.9-2.4-1.3-3.5
	c-0.1-0.2-0.2-0.3-0.4-0.2c-0.1,0.1-0.1,0.2-0.1,0.3C42,354.9,42.3,356.1,43.3,357.1z M30.1,48.4c0.1,0,0.1,0,0.2,0c0-1,0-2.1,0-3.1
	c0-0.2,0-0.4-0.3-0.4c-0.2,0-0.2,0.2-0.2,0.3C29.9,46.3,30,47.3,30.1,48.4z M47.4,371.8c0.6,0.6,1.4,1.1,2.2,1.4
	C49.2,372.3,48.4,372,47.4,371.8z M134.7,134.5c-0.2,0.9,0.1,1.6,0.2,2.2c0,0.1,0.1,0.2,0.3,0.2c0.2,0,0.2-0.2,0.2-0.3
	C135.1,136,135.2,135.3,134.7,134.5z M119,367.6c-0.7,0.1-1.3,0.1-1.8,0.1C117.8,368.3,118.3,368.4,119,367.6z M139.8,363.2
	c0.8,0.2,1.5,0.3,2.2-0.3C141.3,363.1,140.5,362.9,139.8,363.2z M126.9,365.9c-0.9-0.6-1.4-0.5-1.8,0.5
	C125.7,366.1,126.4,366.3,126.9,365.9z M6.1,150.6c0.2-1,0.1-1.7-0.6-2.3C5.5,149.1,5.7,149.8,6.1,150.6z M6.1,150.8
	c0.1,0.8,0.1,1.4,0.6,2.2C6.8,152.1,6.8,151.5,6.1,150.8z M104.6,369.5c-0.8-0.2-1.4,0.1-2,0.8C103.4,370.2,104,369.8,104.6,369.5z
	 M44.1,359.7c0.4-0.7,0.1-1.1-0.3-1.6c-0.1,0-0.2,0.1-0.2,0.1C43.8,358.7,43.9,359.2,44.1,359.7z M134.1,365.1
	c-0.6-0.1-1-0.1-1.4,0.1c-0.1,0.1,0,0.3,0.1,0.3C133.3,365.6,133.6,365.4,134.1,365.1z M84,372.5c1,0.6,1.2,0.6,1.8,0
	C85.3,372.5,84.8,372.5,84,372.5z M133.9,125c0.2-1.1,0.2-1.2,0-1.8C133.6,124,133.6,124.1,133.9,125z"/>
<path id="XMLID_43_" class="st0" d="M161.7,288.1c9.4-0.6,18-3.4,25.3-9.6c4.5-3.8,8.2-8.2,10.6-13.7c0.3-0.7,0.5-1.3,0.8-2
	c0.2-0.6,0.6-0.9,1.3-0.7c6.4,2.2,12.6,4.6,18.7,7.5c0.7,0.4,1.2,0.9,1.4,1.7c1.2,4.8,2.2,9.7,3.1,14.6c0.8,4.3,1.6,8.6,2.1,12.9
	c0.8,6.1,1.3,12.2,0.9,18.3c-0.7,11.5-2.5,22.8-5.8,33.9c-1.3,4.3-2.9,8.4-5.5,12.1c-0.9,1.2-1.9,2.4-3.6,2.5
	c-1.4,0.1-2.5-0.6-3.6-1.4c-2.8-2.1-5-4.9-7-7.7c-7.5-10.9-17.8-17.9-30.2-22c-0.7-0.2-1.4-0.4-2.1-0.6c0.6-3.7,0.4-7.4-0.1-11.1
	c-0.5-4.2-0.7-8.4-1.4-12.6c-0.6-3.6-1.7-7-2.5-10.5c-0.8-3.6-1.5-7.3-2.4-10.9C161.7,288.5,161.7,288.3,161.7,288.1z"/>
<path id="XMLID_46_" class="duke-body" d="M303.7,236.7c-0.8-0.7-1.7-1.3-2.6-2.1c1.9-1.2,3-2.9,3.8-4.9c0.4-1,0.3-1.9-0.2-2.8
	c-1.9-3.7-5-5.5-9.2-5.6c-2.6-0.1-5.3-0.3-7.8-1.2c-1.2-0.5-1.5-0.9-1.2-2.2c0.4-1.6,0.8-3.2,1.2-4.9c0.4-1.7,0.8-3.4,0.3-5.2
	c-0.4-1.3-0.8-2.6-1.2-4c-2.1-6.6-10.7-9.5-16.4-5.5c-1.2,0.8-1.4,2.1-0.5,3.2c0.3,0.5,0.6,1,0.7,1.5c1.2,5.2,1.9,10.6,1.8,16
	c-0.1,4.6-1.6,8.6-5,11.8c-1.6,1.6-2.8,3.5-3.5,5.6c-0.8,2.4-1.5,4.9-2,7.4c-0.2,1.3-0.7,2.6,0,3.8c0.7,1.1,0.2,1.8-0.5,2.5
	c-5.1,5.6-10.1,11.1-15.2,16.7c-2.7,2.9-5.4,5.9-8.1,8.9c-1.2-1.9-2.8-3.5-4.9-4.3c-1.5-0.6-3.1-0.9-4.7-1c-1-0.1-1.6-0.4-1.8-1.5
	c-0.8-3.7-1.8-7.5-2.8-11.2c-5.3-19.8-11.8-39.3-18.8-58.6c-7.2-19.6-14.9-39-22.6-58.4c-0.1-0.2-0.1-0.5-0.6-0.7
	c-0.1,0.2-0.3,0.5-0.6,0.8c-2.7,2.8-5.5,5.5-8.2,8.3c-9.5,9.8-18.9,19.7-27.8,30.1c0.4,2.9,0.7,5.7,1.1,8.6c0.4,3.3,0.9,6.6,1.3,9.8
	c0.5,3.6,0.9,7.2,1.3,10.8c0.5,3.5,1,6.9,1.5,10.4c0.3,1.8,0.5,3.7,0.8,5.5c3.4-0.7,6.8-0.9,10.2-0.6c9.4,0.8,17.4,4.4,23.9,11.4
	c3.8,4.1,6.4,8.9,7.2,14.5c1.4,9.7-1.5,17.9-8.7,24.6c-5.1,4.8-11.2,7.7-18.1,9c-2,0.4-4,0.5-6,0.7c0.2,2.4,0.8,4.7,1.5,6.9
	c9.4-0.6,18-3.4,25.3-9.6c4.5-3.8,8.2-8.2,10.6-13.7c0.3-0.7,0.5-1.3,0.8-2c0.2-0.6,0.6-0.9,1.3-0.7c6.4,2.2,12.6,4.6,18.7,7.5
	c0.7,0.4,1.2,0.9,1.4,1.7c1.2,4.8,2.2,9.7,3.1,14.6c0.8,4.3,1.6,8.6,2.1,12.9c0.8,6.1,1.3,12.2,0.9,18.3
	c-0.7,11.5-2.5,22.8-5.8,33.9c-1.3,4.3-2.9,8.4-5.5,12.1c-0.9,1.2-1.9,2.4-3.6,2.5c-1.4,0.1-2.5-0.6-3.6-1.4c-2.8-2.1-5-4.9-7-7.7
	c-7.5-10.9-17.8-17.9-30.2-22c-0.7-0.2-1.4-0.4-2.1-0.6c0,1.3-0.2,2.7-0.3,4c-0.1,1.5-0.3,2.9-0.5,4.4c1.4,0.3,2.7,0.9,4,1.4
	c7.3,3,13.9,7.1,19,13.2c2.2,2.6,4.1,5.4,6.3,8.1c1.1,1.4,2.3,2.8,3.7,4c5.2,3.3,11.6,5.8,17.2,2.8c1-0.7,2-1.5,2.9-2.6
	c1.1-1.3,2.1-2.7,2.9-4.2c2.6-4.5,4.2-9.4,5.5-14.4c1.9-7.1,3.2-14.3,4.2-21.6c0.7-5.5,1.2-11,1.2-16.5c0-7.2-0.9-14.4-2.1-21.5
	c-0.2-1.2,0.1-2.1,1-2.8c0.4-0.3,0.8-0.6,1.1-1c1.6-1.5,3.1-3.2,3.5-5.5c0.5-2.3,1.5-4.1,3.2-5.8c4.4-4.3,8.8-8.7,13.2-13.1
	c4-4,8.1-7.9,12.3-11.6c0.6-0.5,1.1-0.7,1.7-0.1c0.4,0.4,1,0.6,1.5,0.7c3.2,0.7,6.4,0.7,9.5-0.6c1.8-0.7,3.4-0.7,5.1,0
	c2.2,0.8,4.1,2,6.3,2.7c4.2,1.4,8-0.2,9.7-4.2c0.4-1.1,0.3-1.7-0.6-2.6c-0.3-0.3-1-0.5-0.7-1.1c0.2-0.5,0.9-0.4,1.3-0.4
	c0.2,0,0.4,0,0.6,0c1.3-0.1,2.6-0.4,3.5-1.5C307.2,243.7,307,239.7,303.7,236.7z"/>
<path id="XMLID_14681_" class="st3" d="M28.2,297.7c0.3,1.8,0.7,3.6,0.9,5.4c0.2,2.4,0.6,4.9,0.7,7.3c-0.8,0.6-1.5,1.1-2.3,1.7
	c-3,2.2-6.3,2.3-9.8,1.3c-1.1-0.3-2.1-0.7-3.1-1.2c-1.7-0.8-2.3-2.2-1.7-4c1.4-4,3.7-7.2,8.1-8.4C23.4,299.2,25.8,298.4,28.2,297.7z
	"/>
<path id="XMLID_14680_" class="st3" d="M26.5,285.6c0.4,2.7,0.7,5.4,1.1,8.1c0.1,0.4,0.1,0.8,0.1,1.2c-0.1,0-0.2-0.1-0.3-0.1
	c0,0,0,0,0,0l0,0c-4.3-1-8.6-2-12.9-3.2c-3-0.8-3.9-2.5-3.6-5.6c0.2-1.7,0.8-3.2,1.8-4.5c0.7-1,1.6-1.3,2.8-1
	c1.8,0.4,3.4,1.3,5.1,2.1C22.6,283.5,24.5,284.6,26.5,285.6z"/>
<polygon id="XMLID_14679_" class="st2" points="27.4,294.8 27.4,294.8 27.5,294.8 27.4,294.8 "/>
<path id="XMLID_14674_" class="background" d="M43.9,299.4c-0.7,0-1.3,0-2,0c-1,0-1.4-0.5-1.5-1.4c-0.8-5.7-1.7-11.3-2.6-17
	c-1.3-8.8-2.7-17.7-4-26.5c-1.4-9-2.8-18-4.3-27c-1.6-10.1-3.4-20.3-5-30.4c-1.9-11.4-3.9-22.9-5.9-34.3c-0.1-0.4-0.2-0.8-0.2-1.3
	c-0.3-1.7-0.2-1.8,1.6-2c5.7-0.6,11.5-1.2,17.2-2c12.3-1.7,24.6-3.3,36.9-5.1c13.9-2,27.8-4.6,41.6-7.2c3.8-0.7,7.6-1.5,11.3-2.3
	c1.8-0.4,1.8-0.3,2.1,1.4c1.9,14.2,3.8,28.4,5.8,42.5c1.3,9.7,2.7,19.4,4.1,29.1c1.3,9.1,2.6,18.1,4,27.2c1.8,12,3.7,24,5.5,36
	c0.1,0.7,0.2,1.4,0.3,2.1c0.2,0.9-0.2,1.2-1,1.4c-4.1,0.9-8.1,1.9-12.2,2.9c-13,3.1-26.2,5.3-39.4,7.4c-8.6,1.3-17.1,2.6-25.7,3.7
	C61.5,297.6,52.8,298.7,43.9,299.4z M129.2,160.2c-0.6-0.7-0.2-1.6-0.6-2.3c-0.3,0.1-0.5,0.4-0.6,0.7c-7.9,11.3-17.2,21.2-27.3,30.5
	c-11.8,10.9-24.1,21.3-36.1,32c-9.6,8.5-18.8,17.4-27,27.2c-0.5,0.6-0.9,1.3-0.7,2.2c0.2,1,0.3,2,0.5,2.9c1.3,8.9,2.7,17.9,4,26.8
	c0.2,1.3,0.2,2.6,0.8,4c0.6-0.7,1.2-1.3,1.7-1.9c0.1-0.1,0.2-0.1,0.3-0.2c3.9-4.7,8.4-8.9,12.8-13c7.9-7.4,16-14.5,24.1-21.5
	c14.5-12.5,28.9-25,43.4-37.5c3.7-3.2,7.4-6.3,11-9.5c0.2-0.2,0.6-0.3,0.5-0.8c-0.3-1.3-0.4-2.5-0.6-3.8c-1.2-7.5-2.3-15-3.5-22.6
	c-0.7-4.3-1.3-8.7-2-13c0-0.2,0-0.5-0.2-0.5C129.4,159.8,129.3,160,129.2,160.2z M45.1,294.6c5-0.5,10-1.1,15-1.6
	c9.2-1,18.4-2,27.6-3.3c8.9-1.3,17.8-2.7,26.7-4.4c10.1-2,20.2-4,30.1-6.6c0.6-0.2,1.5-0.2,1.3-1.1c-0.2-0.9-1-0.5-1.6-0.3
	c-5.2,1.1-10.5,2.3-15.7,3.4c-9.4,2-18.9,3.7-28.4,5.3c-9.6,1.6-19.2,3.1-28.9,4.2c-8.8,1.1-17.5,2.1-26.3,2.9
	c-0.6,0.1-1.6-0.1-1.6,0.8C43.5,294.8,44.4,294.6,45.1,294.6z M23.9,165.5c3.2-0.3,6.4-0.6,9.6-1c6.9-0.9,13.9-1.9,20.8-2.8
	c8-1.1,15.9-2.2,23.9-3.5c10.9-1.8,21.8-3.8,32.7-5.7c5.2-0.9,10.3-1.8,15.4-3c0.6-0.1,1.2-0.3,1-1c-0.1-0.7-0.8-0.4-1.2-0.3
	c-7.4,1.4-14.9,2.9-22.3,4.2c-9.1,1.5-18.1,3-27.2,4.4c-8.7,1.3-17.3,2.6-26,3.8c-6.9,1-13.9,2-20.9,2.9c-2,0.3-4.1,0.5-6.1,0.7
	c-0.3,0-0.7,0-0.8,0.5c-0.1,0.3,0.1,0.6,0.3,0.8C23.4,165.7,23.7,165.5,23.9,165.5z"/>
<path id="XMLID_14673_" class="duke-pants" d="M161.7,291c9.4-0.6,18-3.4,25.3-9.6c4.5-3.8,8.2-8.2,10.6-13.7c0.3-0.7,0.5-1.3,0.8-2
	c0.2-0.6,0.6-0.9,1.3-0.7c6.4,2.2,12.6,4.6,18.7,7.5c0.7,0.4,1.2,0.9,1.4,1.7c1.2,4.8,2.2,9.7,3.1,14.6c0.8,4.3,1.6,8.6,2.1,12.9
	c0.8,6.1,1.3,12.2,0.9,18.3c-0.7,11.5-2.5,22.8-5.8,33.9c-1.3,4.3-2.9,8.4-5.5,12.1c-0.9,1.2-1.9,2.4-3.6,2.5
	c-1.4,0.1-2.5-0.6-3.6-1.4c-2.8-2.1-5-4.9-7-7.7c-7.5-10.9-17.8-17.9-30.2-22c-0.7-0.2-1.4-0.4-2.1-0.6c0.6-3.7,0.4-7.4-0.1-11.1
	c-0.5-4.2-0.7-8.4-1.4-12.6c-0.6-3.6-1.7-7-2.5-10.5c-0.8-3.6-1.5-7.3-2.4-10.9C161.7,291.3,161.7,291.1,161.7,291z"/>
<path id="XMLID_14672_" class="duke-nose" d="M151.6,224.5c3.4-0.7,6.8-0.9,10.2-0.6c9.4,0.8,17.4,4.4,23.9,11.4c3.8,4.1,6.4,8.9,7.2,14.5
	c1.4,9.7-1.5,17.9-8.7,24.6c-5.1,4.8-11.2,7.7-18.1,9c-2,0.4-4,0.5-6,0.7c-0.5-1.4-0.6-2.9-0.8-4.3c-0.5-3.3-1-6.6-1.4-9.9
	c-0.7-4.8-1.4-9.5-2.1-14.3c-0.7-4.6-1.3-9.2-2-13.8c-0.6-4.6-1.2-9.2-1.8-13.7C151.8,226.7,151.5,225.6,151.6,224.5z"/>
<path id="XMLID_14669_" class="background" d="M27.2,27.3c0.3-2.9,0.1-3.1-2.7-2.9c-2.3,0.2-2.4,0.2-2.4-2.2c0-2-0.4-4-0.1-6
	c0.3-1.6,0.9-3,1.5-4.5c0.5-1,1.4-1.6,2.4-1.9C32.6,8,39.3,6.7,46.1,5.8c4.1-0.6,8.3-1.3,12.4-1.9c5-0.7,10.1-1.1,15.1-1.5
	c1.2-0.1,2.4-0.2,3.6-0.2C79.4,2.2,81,3,82,4.9c1.6,3.1,2.9,6.4,3.2,10c0.1,1-0.2,1.5-1.2,1.6c-0.6,0.1-1.2,0.2-1.8,0.3
	c-1.3,0.3-1.6,1-0.9,2c0.9,1.4,1.9,2.7,2.9,4c0.3,0.5,0.7,1,1,1.5c0.9,1.7,0.9,3.4-0.5,4.7c-1.1,1.1-1.3,2.3-1,3.7
	c0.7,3.9,1.2,7.9,2.3,11.8c1.7,6,5,10.9,9.2,15.3c2.9,3.1,6.3,5.3,9.8,7.6c9.1,6.1,16.9,13.6,22.7,23c5.2,8.6,8.1,18,9.5,27.9
	c0.5,3.9,0.4,7.9,0.9,11.8c0.7,6.2,1.5,12.4,2.4,18.6c1.5,11.7,3.1,23.5,4.7,35.2c1.8,13,3.5,25.9,5.2,38.9
	c2.2,16.6,4.7,33.2,7,49.7c1,7.2,2.2,14.3,4.1,21.3c0.9,3.4,1.2,6.9,2.2,10.2c1.8,5.9,2.5,12,3,18.1c0.2,2.4,0.1,4.7,0.6,7.1
	c-0.1,0-0.1,0-0.2,0c-0.7-0.7-0.9-1.6-0.9-2.5c-0.3-4.6-0.6-9.2-1.2-13.8c-0.3-2.1-0.6-4.1-1.2-6.1c-1.3-4.3-1.9-8.8-3-13.1
	c-2.1-8.5-3.4-17.1-4.6-25.8c-1.5-10.3-3-20.6-4.4-30.9c-1.7-11.8-3.2-23.7-4.9-35.5c-1.1-7.8-2.2-15.5-3.3-23.3
	c-1-7-1.9-14-2.8-21.1c-1.3-9.7-2.5-19.4-3.7-29.1c-0.3-2.4,0-4.8-0.3-7.2c-2.2-19.8-10.6-36.1-27.1-47.9c-1.7-1.2-3.5-2.5-5.4-3.5
	c-3-1.6-5.3-3.9-7.6-6.3c-5.7-6.1-9.9-13-12-21.2c-0.7-2.9-0.8-5.9-1.4-8.8c-0.2-1-0.2-2.1-1.3-2.6c-0.4-0.2-0.2-0.4,0.1-0.6
	c0.5-0.3,1-0.6,1.5-1c1.9-1.5,2.1-3.4,0.7-5.3c-0.8-1.2-1.6-2.4-2.6-3.5c-0.7-0.6-0.7-1.6-0.9-2.5c-0.3-1.4-0.6-1.6-1.9-1.2
	c-3.5,1.1-7.1,1.5-10.7,1.8c-1.2,0.1-2.5,0.4-3.7,0.6c-4.4,0.8-8.9,1.3-13.4,1.8c-3.8,0.5-7.7,1.2-11.5,1.5c-3,0.3-6.2,0.6-9.1,1.5
	c-0.8,0.2-1.7-0.1-2.3,0.5c-0.6,0.6-0.1,1.5-0.3,2.2c0,0.2-0.1,0.4-0.1,0.6C27.4,27.4,27.3,27.4,27.2,27.3z M77.6,3.7
	c0-0.1,0-0.2,0-0.3C64.2,4.2,50.9,6,37.7,8.5c0,0.1,0,0.2,0,0.2C51.1,7.1,64.3,5.4,77.6,3.7z"/>
<path id="XMLID_14668_" class="st0" d="M21.7,90c0.2,0.8-0.1,1.1-0.2,1.5c-0.2,0.5-0.4,1,0.3,1.3c0.4,0.2,0.3,0.6,0,0.9
	c-1.1,1.4-1.6,3.1-2.4,4.7c-0.9,1.8-2.1,3.5-3.2,5.2c-0.5,0.8-1,1.5-0.5,2.6c0.2,0.5-0.2,0.9-0.6,1.1c-0.5,0.3-0.8,0.7-0.6,1.2
	c0.4,1.3,0,2.4-0.6,3.5c-1.6,3.3-2.4,6.8-3,10.4c-0.2,1.3-0.2,2.6-0.3,3.8c-0.1,1.8-0.1,3.6-0.3,5.3c-0.2,2,0.2,4,0.6,6
	c0.9,4.7,1.3,9.5,2.4,14.2c1,4.1,1.7,8.3,2.4,12.4c0.8,4.9,1.6,9.8,2.3,14.8c0.5,3.6,0.7,7.2,1.2,10.8c0.7,4.5,1.3,9,2.3,13.4
	c1,4.4,1.2,9,2.3,13.3c1.2,5.1,1.3,10.4,2.6,15.5c0.2,1,0,2,0,3.1c0.1,2.2,0.7,4.3,0.9,6.5c0.6,7.2,1.9,14.2,2.9,21.4
	c1.6,11.8,3.3,23.6,4.8,35.5c0.7,5.9,1.4,11.8,2.1,17.7c0,0.4,0.2,0.8-0.4,0.9c-0.5,0.1-0.3,0.5-0.2,0.7c0.5,3.9,1.1,7.8,1.6,11.7
	c0.3,2.5,0.5,4.9,0.4,7.4c-0.2,3.9,0.5,7.6,1.8,11.3c0.4,1.1,0.6,2.2,1,3.3c-0.4,0.1-0.4-0.2-0.4-0.3c-2.8-8.1-5-16.2-5.2-24.8
	c-0.1-2.7-0.4-5.3-0.8-8c-0.2-1-0.1-2-0.1-2.9c0-5.7-1-11.2-1.8-16.8c-1.2-8-2.3-16-3.5-24c-1.2-7.8-2.4-15.6-3.6-23.3
	c-1.3-8.5-2.7-16.9-4.1-25.4c-1.5-9.5-3.2-19-4.6-28.5c-2.2-14.5-5-29-7.2-43.5c-0.8-5.1-2.1-10-3.2-15c-1.2-5.5-1.2-11-0.4-16.5
	c0.4-2.5,0.4-5.1,1-7.6c1.3-4.8,2.7-9.7,5.4-14c1.8-2.9,3.8-5.5,6.3-7.8C19.9,92,20.7,91.1,21.7,90z"/>
<path id="XMLID_14667_" class="st4" d="M36.5,352.7c0.1-3.8-1.6-7-2.3-10.5c-1.4-6.2-2-12.4-2.5-18.7c-0.5-6.3-0.7-12.6-1.4-18.8
	c-0.7-5.8-1.6-11.5-2.5-17.2c-1.8-12.1-3.6-24.2-5.5-36.4c-1.4-9.2-2.9-18.3-4.3-27.5c-1.5-9.6-3.1-19.3-4.6-28.9
	c-1.1-6.9-2.2-13.7-3.3-20.6c-1.1-6.6-2.2-13.2-3.3-19.8c0-0.2,0-0.4,0-0.7c0.4,0.4,0.4,0.7,0.5,1c1.8,10.9,3.8,21.7,5.4,32.6
	c1.3,8.8,2.8,17.5,4.2,26.2c1.3,8.2,2.6,16.4,3.9,24.6c1.3,8.2,2.6,16.4,3.8,24.6c0.9,6.1,1.8,12.2,2.7,18.3
	c0.9,6,1.8,11.9,2.7,17.9c1,6.3,1.4,12.6,1.7,19c0.1,2.7,0.7,5.4,0.8,8.2c0.2,4.4,0.7,8.8,1.6,13.1c0.7,3.1,1.6,6.2,2.5,9.3
	c0.3,1,0.7,2.1,0.6,3.2C37,352,37.1,352.4,36.5,352.7z"/>
<path id="XMLID_14666_" class="st0" d="M11.6,92.4c2.2-4.1,5-7.7,8-11.2c4.1-4.8,7.1-10.2,9.1-16.2c0.1,0.1,0.3,0.2,0.4,0.2
	c-1.2,3.9-2.7,7.7-4.5,11.3c-0.9,1.7-1.9,3.3-3.3,4.6c-3.6,3.5-6.7,7.4-9.3,11.7C11.9,92.7,11.7,92.6,11.6,92.4z"/>
<path id="XMLID_14665_" class="st4" d="M10.8,94.9c-0.9,2.1-2.1,4.2-3,6.3c-1.3,3.1-2.6,6.3-3.3,9.6c-0.9,4.2-1.7,8.4-1.8,12.8
	c0,0.4,0.1,0.8-0.5,1.2c0.1-1.2,0.1-2.4,0.2-3.5c0.6-4.2,1-8.5,2.1-12.6c1.3-4.8,3.1-9.4,5.6-13.8c0.1-0.1,0.2-0.2,0.3-0.2
	C10.5,94.7,10.6,94.8,10.8,94.9z"/>
<path id="XMLID_14664_" class="st0" d="M133.5,121.3c-1-5.8-2-11.6-4-17.2C132.1,109.5,133.4,115.3,133.5,121.3z"/>
<path id="XMLID_14663_" class="st4" d="M27.2,27.3c0.1,0,0.2,0,0.3,0c-0.2,1.7-0.9,3.2-1.4,4.8c-0.2,0.8-0.5,1.5-0.6,2.3
	c-0.3,2.2,0.9,3.6,3.3,3.9c0.5,0.1,1,0.1,1.5,0.3c-0.3,0.5-0.9,0.8-0.9,1.6c0,0.6,0.3,1.1,0.1,1.9c-0.3-0.5-0.4-0.9-0.4-1.3
	c-0.1-0.9-0.6-1.6-1.4-2c-2.5-1.2-3.3-3-2.5-5.6C25.8,31.3,26.5,29.3,27.2,27.3z"/>
<path id="XMLID_14662_" class="st0" d="M43.4,367.2c-2.2-3.6-3.7-7.6-5.3-11.5c0.1-0.1,0.2-0.1,0.3-0.2c1.7,3.8,3.5,7.6,5.2,11.5
	C43.6,367.1,43.5,367.2,43.4,367.2z"/>
<path id="XMLID_14661_" class="st4" d="M29.1,65.2c-0.1-0.1-0.3-0.2-0.4-0.2c1-3.9,1.7-7.8,1.7-11.8c0-0.6,0-1.2,0-1.9
	c0.3-0.1,0.4,0.2,0.4,0.3C30.9,56.2,30.5,60.8,29.1,65.2z"/>
<path id="XMLID_14660_" class="st4" d="M2.3,127c0.5,5,0.7,10.1,1.8,15.1C3,140.7,2.1,133.7,2.3,127z"/>
<path id="XMLID_14659_" class="st4" d="M167,337.2c-0.2,4-0.3,8.1-1.6,12c0.5-4,1-8,1.2-12.1C166.6,337.1,166.8,337.2,167,337.2z"/>
<path id="XMLID_14658_" class="st4" d="M167,329.6c0.1,0,0.1,0,0.2,0c0.6,2.2,0.3,4.3,0,6.5c-0.1,0-0.2,0-0.2,0
	C167,333.9,167,331.7,167,329.6z"/>
<path id="XMLID_14657_" class="st0" d="M128.5,102.4c-0.5-1-1.1-2.1-1.6-3.1c-0.1-0.2,0-0.4,0.1-0.5c0.1-0.1,0.3,0,0.3,0.1
	C128,99.9,128.8,101,128.5,102.4z"/>
<path id="XMLID_14656_" class="st4" d="M43.3,357.1c-1-0.9-1.3-2.2-1.8-3.4c-0.1-0.1,0-0.3,0.1-0.3c0.2-0.1,0.3,0,0.4,0.2
	C42.4,354.7,42.9,355.9,43.3,357.1z"/>
<path id="XMLID_14655_" class="st4" d="M30.1,48.4c-0.1-1.1-0.2-2.2-0.3-3.3c0-0.1,0-0.3,0.2-0.3c0.3,0,0.3,0.2,0.3,0.4
	c0,1,0,2.1,0,3.1C30.2,48.4,30.2,48.4,30.1,48.4z"/>
<path id="XMLID_14654_" class="st4" d="M44.2,367.9c0.7,0.9,1.4,1.9,2.1,2.8c-0.1,0.1-0.1,0.1-0.2,0.2c-0.9-0.7-1.6-1.7-2.1-2.7
	C44,368.1,44.1,368,44.2,367.9z"/>
<path id="XMLID_14653_" class="st4" d="M47.4,371.8c0.9,0.2,1.8,0.5,2.2,1.4C48.8,373,48.1,372.5,47.4,371.8z"/>
<path id="XMLID_14652_" class="st4" d="M134.7,134.5c0.6,0.8,0.5,1.5,0.6,2.2c0,0.1,0,0.3-0.2,0.3c-0.2,0-0.3-0.1-0.3-0.2
	C134.8,136,134.5,135.4,134.7,134.5z"/>
<path id="XMLID_14651_" class="st0" d="M119,367.6c-0.7,0.8-1.2,0.7-1.8,0.1C117.7,367.7,118.2,367.7,119,367.6z"/>
<path id="XMLID_14650_" class="st4" d="M139.8,363.2c0.7-0.3,1.5-0.1,2.2-0.3C141.4,363.5,140.6,363.4,139.8,363.2z"/>
<path id="XMLID_14649_" class="st4" d="M126.9,365.9c-0.5,0.4-1.2,0.2-1.8,0.5C125.5,365.4,126,365.3,126.9,365.9z"/>
<path id="XMLID_14648_" class="st4" d="M6.1,150.6c-0.4-0.9-0.6-1.5-0.6-2.3C6.2,148.9,6.3,149.6,6.1,150.6z"/>
<path id="XMLID_14647_" class="st4" d="M6.1,150.8c0.7,0.7,0.7,1.3,0.6,2.2C6.2,152.2,6.2,151.6,6.1,150.8z"/>
<path id="XMLID_14646_" class="st4" d="M104.6,369.5c-0.6,0.4-1.1,0.7-2,0.8C103.2,369.6,103.8,369.2,104.6,369.5z"/>
<path id="XMLID_14645_" class="st4" d="M44.1,359.7c-0.2-0.5-0.3-1-0.5-1.5c0.1,0,0.2-0.1,0.2-0.1C44.2,358.6,44.5,359,44.1,359.7z"
	/>
<path id="XMLID_14644_" class="st4" d="M134.1,365.1c-0.5,0.4-0.8,0.6-1.3,0.4c-0.1,0-0.2-0.2-0.1-0.3
	C133.1,364.9,133.5,364.9,134.1,365.1z"/>
<path id="XMLID_14643_" class="st0" d="M84,372.5c0.7,0,1.2,0,1.8,0C85.3,373.1,85.1,373.1,84,372.5z"/>
<path id="XMLID_14642_" class="st4" d="M133.9,125c-0.3-1-0.3-1,0-1.8C134.1,123.8,134.1,124,133.9,125z"/>
<path id="XMLID_14641_" class="st0" d="M10.5,94.5c0-0.1,0-0.2,0.1-0.3c0.1-0.2,0.2-0.6,0.5-0.5c0.4,0.2,0,0.5-0.1,0.7
	c0,0.1-0.1,0.1-0.2,0.2C10.7,94.7,10.6,94.6,10.5,94.5z"/>
<path id="XMLID_14640_" class="st0" d="M11.8,93.1c0,0.1-0.1,0.2-0.2,0.3c-0.2,0.2-0.2,0.6-0.5,0.5c-0.4-0.2,0-0.5,0.1-0.7
	C11.5,93,11.7,93.1,11.8,93.1z"/>
<path id="XMLID_14639_" class="st4" d="M11.8,93.1c-0.2,0-0.4,0-0.6,0c0-0.3,0.1-0.5,0.3-0.6c0.1,0.1,0.3,0.3,0.4,0.4
	C12,92.9,12,93,11.8,93.1z"/>
<path id="XMLID_14638_" class="st0" d="M44.2,367.9c-0.1,0.1-0.1,0.1-0.2,0.2c-0.1-0.2-0.2-0.3-0.3-0.5c0.1-0.1,0.1-0.1,0.2-0.2
	C44,367.6,44.1,367.8,44.2,367.9z"/>
<path id="XMLID_14637_" class="st0" d="M43.7,367.6c-0.1-0.1-0.1-0.3-0.2-0.4c0.1-0.1,0.2-0.1,0.3-0.2c0.1,0.1,0.1,0.2,0.2,0.4
	C43.8,367.5,43.7,367.6,43.7,367.6z"/>
<path id="XMLID_14636_" class="st0" d="M10.8,94.9c-0.1-0.1-0.2-0.2-0.3-0.3c0-0.1,0-0.1,0.1-0.1c0.1,0.1,0.2,0.1,0.3,0.2
	C10.8,94.8,10.8,94.9,10.8,94.9z"/>
<path id="XMLID_14627_" class="bottle-slogan" d="M129.2,160.2c0.1-0.2,0.2-0.4,0.4-0.4c0.2,0,0.2,0.3,0.2,0.5c0.7,4.3,1.3,8.7,2,13
	c1.2,7.5,2.3,15,3.5,22.6c0.2,1.3,0.4,2.5,0.6,3.8c0.1,0.5-0.3,0.6-0.5,0.8c-3.7,3.2-7.3,6.3-11,9.5c-14.5,12.5-28.9,25-43.4,37.5
	c-8.2,7-16.3,14.1-24.1,21.5c-4.4,4.2-8.9,8.3-12.8,13c-0.1,0.1-0.2,0.2-0.3,0.2c-0.9-3.3-1.5-6.7-2.2-10.1
	c-1.5-7.2-3-14.3-4.4-21.5c-0.1-0.5-0.2-0.9,0.2-1.3c3.3-3.6,6.5-7.2,9.8-10.7c2.1-2.3,4.5-4.4,6.9-6.5c3.2-2.9,6.3-5.9,9.6-8.8
	c3.8-3.4,7.6-6.7,11.5-10.1c4.5-3.9,9-7.8,13.6-11.6c4.2-3.5,8.3-7.1,12.2-10.9c0.9-0.9,1.9-1.8,2.9-2.7c2.8-2.5,5.6-5,8.2-7.7
	c2.6-2.8,5.2-5.7,7.9-8.4c0.6-0.7,1.2-1.4,1.8-2.1C124.1,166.7,126.7,163.5,129.2,160.2z M61.9,233.9c1,1,1.5,2.2,2.2,3.3
	c0.6,1.1,1.2,2.2,2.2,3c1.2,1,2.5,1.3,4,0.7c2.5-1,4.2-3.8,3.8-6.4c-0.5-3.7-2.8-6.5-4.5-9.6c-1,0.8-1.8,1.6-2.6,2.4
	c-0.4,0.4-0.5,0.7,0,1.1c1.7,1.5,3.1,3.2,4.1,5.2c0.5,1,0.9,2.1,0.7,3.2c-0.2,1.3-1,2.1-2.1,2.5c-1.1,0.3-1.9-0.4-2.5-1.2
	c-0.6-0.7-1-1.6-1.3-2.4c-0.6-1.6-1.3-3.2-2-5c-0.2,0.3-0.3,0.5-0.4,0.6c-1.1,1.2-1.1,1.2-2-0.1c-2.4,2.9-5.1,5.5-7.9,8
	c-0.5,0.5-1.6,0.7-1.5,1.4c0.1,0.7,0.8,1.3,1.3,2c0.3,0.5,0.6,0.4,1,0c0.7-0.8,1.5-1.5,2.2-2.3c0.3-0.4,0.5-0.3,0.9,0
	c0.8,0.7,1.5,1.4,2.1,2.2c1.7,2.2,3.1,4.7,4.5,7.2c0.3,0.5,0.5,0.7,1,0.2c0.5-0.5,1.1-1,1.7-1.5c0.2-0.2,0.4-0.3,0-0.6
	c-3.2-2.6-5.2-6.1-7.3-9.5c-0.4-0.6-0.4-1,0.1-1.6C60.1,236,60.9,235,61.9,233.9z M77.2,233.9c0.1-0.2,0.2-0.2,0.3-0.3
	c0.7-0.8,0.8-1.8,0.1-2.8c-0.5-0.7-1-1.1-1.9-0.9c-0.8,0.2-1.4,1.3-1.3,2.4c0,0.3,0,0.5,0.1,0.8c1.1,4,6.1,5.5,9.1,2.7
	c1.7-1.5,2.7-3.4,3.2-5.5c0.8-3.9-1.2-6-5.1-5.4c-0.5,0.1-0.9,0.3-1.5,0.2c0.4-0.8,0.9-1.4,1.2-2.2c0.4-1,0.5-2-0.1-2.9
	c-1-1.8-2.7-2.2-4.7-1.2c-2,1.1-3.7,2.6-5.3,4.3c-0.2,0.2-0.3,0.4-0.1,0.8c0.3,0.6,0.6,1.1,0.9,1.7c0.4-0.3,0.7-0.4,0.9-0.7
	c0.6-0.6,0.9-0.4,1.3,0.2c1.1,1.7,2.4,3.4,3.4,5.2c0.6,1,1.2,0.6,1.8,0.2c0.8-0.5-0.2-0.7-0.2-1.1c0-0.3-0.5-0.5-0.2-0.8
	c0.8-0.8,1.7-1.5,2.9-1.5c1,0,1.5,0.7,1.8,2.1c0.5,2.5-0.8,5.2-2.9,5.7C79.7,235.3,78.5,234.6,77.2,233.9z M91.3,215.8
	c0.4-0.6,0.7-1.1,0.9-1.6c0.6-1.1,0.9-2.3,0.3-3.5c-1-1.9-2.8-2.4-4.9-1.3c-1.7,0.9-3.1,2.3-4.6,3.6c-0.8,0.7-0.8,1.2-0.4,2.2
	c0.5,0.9,0.8,1,1.5,0.3c0.6-0.7,0.9-0.4,1.3,0.2c1.2,1.8,2.4,3.6,3.6,5.4c0.6,0.9,1.2,0.1,1.7-0.1c0.6-0.2,0.1-0.6-0.1-0.8
	c-0.7-0.7-0.4-1.2,0.3-1.6c0.3-0.2,0.6-0.4,0.9-0.6c1.5-0.8,2.7-0.2,3.1,1.4c0.4,1.8,0.1,3.4-1,4.8c-0.8,1.1-2,1.5-3.3,1.3
	c-0.9-0.2-1.7-0.5-2.4-1.1c0.1-0.1,0.1-0.2,0.2-0.3c0.8-0.9,0.8-1.8,0.1-2.9c-0.5-0.7-1.1-1.1-1.9-0.8c-0.8,0.3-1.4,1.4-1.3,2.6
	c0.1,0.6,0.2,1.1,0.5,1.6c0.7,1.1,1.6,2,2.7,2.6c1.6,0.9,3.1,0.8,4.7,0c2.8-1.5,5-5.6,4.5-8.8c-0.2-1.6-1.2-2.6-2.8-3
	C93.9,215.2,92.6,215.6,91.3,215.8z M51.6,257.2c0.2-0.2,0.4-0.3,0.6-0.5c0.4-0.5,0.4-1.1,0.1-1.7c-0.2-0.5-0.7-0.7-1.2-0.6
	c-1.5,0.1-2.7,1.6-2.5,3.2c0.1,1.5,1.4,2.4,2.9,2.3c0.8-0.1,1.6-0.4,2.3-0.9c2.2-1.6,3.5-3.8,3.8-6.5c0.2-1.7-0.2-3.2-1.7-4.3
	c-1.4-1-2.8-0.4-4.1,0.2c-0.7,0.3-1.4,0.7-2.2,0.9c-0.7,0.2-1.3,0.1-1.8-0.4c-0.5-0.6-0.7-1.3-0.4-2c0.3-0.8,0.9-1.3,1.6-1.7
	c1-0.5,1.2-0.4,1.3,0.7c0,0.7,0.2,1.1,1,1c0.9-0.1,1.8-1.3,1.7-2.5c-0.1-1.4-0.8-2-2-1.9c-3.3,0.4-7,4.7-5.4,8.6
	c0.8,1.9,1.8,2.4,3.7,1.7c1-0.4,1.9-0.8,2.9-1.2c1.5-0.5,2.8,0,3.4,1.4c0.7,1.5-0.4,3.9-2,4.5C52.9,257.8,52.3,257.8,51.6,257.2z
	 M111.8,190.6c0.4,0.3,0.7,0.5,1,0.9c0.5,0.6,0.8,0.5,1.3,0c1.3-1.2,2.6-2.4,3.9-3.5c0.3-0.2,0.5-0.6,0.8-0.1c1.7,2.5,3.6,4.9,5,7.7
	c0.4,0.8,0.7,1.6,0.6,2.5c-0.1,1.2-1.1,2.3-2.4,2.4c-0.9,0.1-1.6-0.3-2-1.3c0.7,0,1.4-0.1,1.8-0.7c0.6-0.8,0.5-1.9-0.1-2.8
	c-0.6-0.8-1.6-1-2.6-0.6c-1,0.5-1.7,1.3-1.9,2.4c-0.4,2.6,2.3,5.2,4.9,4.6c1.8-0.4,2.9-1.6,3.9-3c0.7-1,0.8-2,0.5-3.2
	c-0.4-1.1-1-2.2-1.6-3.1c-1.4-2.1-2.8-4.2-4.3-6.3c-0.4-0.5-0.5-1,0.1-1.4c0.4-0.3,0.3-0.5,0.1-0.9c-0.3-0.4-0.5-0.8-0.8-1.3
	c-0.3-0.6-0.5-0.5-0.9-0.1C116.7,185.4,114.3,188,111.8,190.6z M101.7,217.5c0.2-0.3,0.3-0.6,0.4-0.8c0.3-1-0.1-1.9-0.8-2.6
	c-0.5-0.5-1-0.7-1.7-0.4c-0.8,0.4-1.4,1-1.5,1.9c-0.1,1.5,1.5,3.5,2.9,3.9c1.5,0.4,3-0.5,3.6-2.3c0.5-1.4,0.5-2.8,0.2-4.2
	c-0.6-3.1-1.6-6.2-2.4-9.3c-0.5-1.9-1-3.8-1.6-6c-0.6,0.7-1,1.3-1.5,1.7c-0.6,0.5-0.7,1-0.3,1.7c1.7,3.1,2.6,6.4,3.4,10
	c-2.2-2.1-4.3-4.1-5.8-6.6c-0.3-0.5-0.4-0.6-0.9-0.1c-0.7,0.8-1.5,1.6-2.3,2.5c1.6,1.2,3.2,2.2,4.8,3.4c1.8,1.4,3.6,2.8,4.8,4.8
	C103.9,216.6,103.5,217.3,101.7,217.5z M106.9,203.6c-0.3-2.9-0.6-5.7-1-8.5c-0.1-0.7-0.2-1.3-0.7-1.8c-0.2-0.2-0.5-0.4-0.8-0.2
	c-0.3,0.2-0.2,0.4-0.2,0.7c0.1,0.6,0.2,1.3,0.3,1.9c0.5,2.8,0.9,5.7,1.6,8.4c0.3,1.2,0.4,1.2,1.2,0.3c1-0.9,1.9-1.9,2.9-2.8
	c0.8-0.8,0.9-0.8,1.4,0.2c1.2,2,2,4.2,2.6,6.5c0.2,0.8,0.5,0.8,1,0.3c0.6-0.6,1.2-1.2,1.7-1.7c0.3-0.3,0.4-0.5,0.1-0.9
	c-1.2-1.8-2-3.9-3.1-5.8c-0.4-0.8-0.7-1.4,0.2-2.1c0.5-0.3,0.2-0.7-0.1-1c-0.3-0.4-0.5-0.2-0.7,0c-0.5,0.4-0.6,0.1-0.8-0.3
	c-0.3-0.7-0.1-1.5-0.5-2.2c-0.7,0.6-1.3,1.1-1.9,1.6c-1.5,1.3-1.5,1.3-0.4,2.9c0.2,0.3,0.6,0.6,0.2,1.1
	C109.1,201.3,108.2,202.5,106.9,203.6z"/>
<path id="XMLID_14626_" class="bottle-slogan" d="M129.2,160.2c-2.5,3.3-5.1,6.5-7.7,9.8c-0.6,0.7-1.1,1.4-1.8,2.1c-2.7,2.8-5.2,5.6-7.9,8.4
	c-2.6,2.7-5.4,5.2-8.2,7.7c-1,0.9-1.9,1.8-2.9,2.7c-3.9,3.8-8,7.4-12.2,10.9c-4.6,3.8-9.1,7.7-13.6,11.6c-3.9,3.3-7.6,6.7-11.5,10.1
	c-3.3,2.9-6.4,5.9-9.6,8.8c-2.3,2.1-4.7,4.2-6.9,6.5c-3.3,3.5-6.5,7.1-9.8,10.7c-0.4,0.4-0.3,0.8-0.2,1.3c1.5,7.2,3,14.3,4.4,21.5
	c0.7,3.4,1.3,6.8,2.2,10.1c-0.5,0.6-1.1,1.2-1.7,1.9c-0.5-1.4-0.6-2.7-0.8-4c-1.4-8.9-2.7-17.9-4-26.8c-0.1-1-0.3-2-0.5-2.9
	c-0.1-0.9,0.2-1.5,0.7-2.2c8.3-9.8,17.5-18.7,27-27.2c12-10.7,24.3-21.1,36.1-32c10.1-9.3,19.5-19.2,27.3-30.5
	c0.2-0.3,0.3-0.6,0.6-0.7C129,158.6,128.6,159.5,129.2,160.2z"/>
<path id="XMLID_14625_" class="st2" d="M45.1,294.6c-0.7,0-1.6,0.2-1.7-0.7c-0.1-0.9,0.9-0.7,1.6-0.8c8.8-0.8,17.6-1.9,26.3-2.9
	c9.7-1.2,19.3-2.7,28.9-4.2c9.5-1.5,19-3.2,28.4-5.3c5.2-1.1,10.5-2.3,15.7-3.4c0.6-0.1,1.4-0.6,1.6,0.3c0.2,0.9-0.7,1-1.3,1.1
	c-10,2.6-20,4.6-30.1,6.6c-8.9,1.7-17.8,3.2-26.7,4.4c-9.2,1.3-18.4,2.3-27.6,3.3C55.1,293.5,50.1,294.1,45.1,294.6z"/>
<path id="XMLID_14624_" class="st2" d="M23.9,165.5c-0.2,0-0.6,0.2-0.8-0.1c-0.2-0.2-0.4-0.5-0.3-0.8c0.1-0.4,0.5-0.4,0.8-0.5
	c2-0.2,4.1-0.5,6.1-0.7c7-1,13.9-1.9,20.9-2.9c8.7-1.2,17.4-2.5,26-3.8c9.1-1.4,18.2-2.9,27.2-4.4c7.5-1.2,14.9-2.8,22.3-4.2
	c0.5-0.1,1.1-0.4,1.2,0.3c0.1,0.7-0.5,0.9-1,1c-5.1,1.2-10.3,2.1-15.4,3c-10.9,2-21.8,3.9-32.7,5.7c-7.9,1.3-15.9,2.4-23.9,3.5
	c-6.9,0.9-13.8,1.9-20.8,2.8C30.3,164.9,27.1,165.2,23.9,165.5z"/>
<path id="XMLID_14623_" class="st2" d="M77.6,3.7c-13.3,1.7-26.6,3.4-39.9,5c0-0.1,0-0.2,0-0.2c13.2-2.5,26.5-4.3,39.9-5
	C77.6,3.5,77.6,3.6,77.6,3.7z"/>
<path id="XMLID_14622_" class="bottle-slogan-letter" d="M61.9,233.9c-0.9,1.1-1.8,2.1-2.6,3c-0.5,0.5-0.5,1-0.1,1.6c2.1,3.4,4.2,6.9,7.3,9.5
	c0.3,0.3,0.2,0.4,0,0.6c-0.6,0.5-1.2,0.9-1.7,1.5c-0.5,0.5-0.7,0.3-1-0.2c-1.4-2.4-2.8-4.9-4.5-7.2c-0.6-0.8-1.3-1.6-2.1-2.2
	c-0.3-0.3-0.5-0.4-0.9,0c-0.7,0.8-1.5,1.5-2.2,2.3c-0.4,0.4-0.6,0.5-1,0c-0.4-0.7-1.2-1.3-1.3-2c-0.1-0.7,1-1,1.5-1.4
	c2.8-2.5,5.5-5.1,7.9-8c0.9,1.3,0.9,1.3,2,0.1c0.1-0.1,0.2-0.3,0.4-0.6c0.7,1.8,1.4,3.4,2,5c0.3,0.9,0.8,1.7,1.3,2.4
	c0.6,0.8,1.4,1.5,2.5,1.2c1.2-0.4,1.9-1.2,2.1-2.5c0.2-1.2-0.2-2.2-0.7-3.2c-1-2-2.4-3.8-4.1-5.2c-0.6-0.5-0.4-0.7,0-1.1
	c0.8-0.8,1.6-1.7,2.6-2.4c1.8,3.1,4,6,4.5,9.6c0.4,2.6-1.3,5.4-3.8,6.4c-1.5,0.6-2.8,0.3-4-0.7c-1-0.8-1.6-1.9-2.2-3
	C63.4,236.1,62.8,234.9,61.9,233.9z"/>
<path id="XMLID_14619_" class="bottle-slogan-letter" d="M77.2,233.9c1.3,0.7,2.5,1.4,3.9,1c2-0.5,3.4-3.2,2.9-5.7c-0.3-1.4-0.9-2.1-1.8-2.1
	c-1.2,0-2.1,0.7-2.9,1.5c-0.3,0.3,0.1,0.5,0.2,0.8c0.1,0.4,1,0.7,0.2,1.1c-0.6,0.4-1.2,0.8-1.8-0.2c-1.1-1.8-2.3-3.4-3.4-5.2
	c-0.4-0.6-0.7-0.9-1.3-0.2c-0.2,0.3-0.6,0.4-0.9,0.7c-0.3-0.6-0.6-1.2-0.9-1.7c-0.2-0.3-0.1-0.5,0.1-0.8c1.6-1.6,3.3-3.2,5.3-4.3
	c1.9-1,3.6-0.5,4.7,1.2c0.6,1,0.5,2,0.1,2.9c-0.3,0.8-0.8,1.4-1.2,2.2c0.6,0.1,1-0.1,1.5-0.2c3.9-0.6,6,1.6,5.1,5.4
	c-0.5,2.2-1.5,4.1-3.2,5.5c-3.1,2.7-8,1.2-9.1-2.7c-0.1-0.3-0.1-0.5-0.1-0.8c-0.1-1.1,0.5-2.2,1.3-2.4c0.9-0.2,1.5,0.2,1.9,0.9
	c0.7,1,0.6,2-0.1,2.8C77.4,233.6,77.3,233.7,77.2,233.9z M77.8,226.6c1.1-1.4,1.9-2.7,1.1-4.4c-0.3-0.6-0.7-1.1-1.5-0.9
	c-0.9,0.3-1.6,0.7-2.1,1.5c0,0.1,0.1,0.3,0.2,0.4C76.4,224.3,77.1,225.4,77.8,226.6z"/>
<path id="XMLID_14616_" class="bottle-slogan-letter" d="M91.3,215.8c1.4-0.2,2.6-0.6,3.9-0.2c1.6,0.4,2.6,1.4,2.8,3c0.4,3.2-1.7,7.3-4.5,8.8
	c-1.6,0.8-3.1,0.9-4.7,0c-1.1-0.6-2-1.5-2.7-2.6c-0.3-0.5-0.5-1-0.5-1.6c-0.1-1.2,0.4-2.3,1.3-2.6c0.9-0.3,1.5,0.1,1.9,0.8
	c0.7,1,0.6,2-0.1,2.9c-0.1,0.1-0.1,0.2-0.2,0.3c0.7,0.5,1.5,0.9,2.4,1.1c1.3,0.2,2.5-0.1,3.3-1.3c1.1-1.5,1.4-3.1,1-4.8
	c-0.4-1.7-1.6-2.2-3.1-1.4c-0.3,0.2-0.6,0.4-0.9,0.6c-0.7,0.4-1,0.9-0.3,1.6c0.2,0.2,0.7,0.6,0.1,0.8c-0.5,0.2-1.1,1-1.7,0.1
	c-1.2-1.8-2.4-3.6-3.6-5.4c-0.4-0.7-0.7-0.9-1.3-0.2c-0.7,0.7-1,0.6-1.5-0.3c-0.5-0.9-0.4-1.5,0.4-2.2c1.5-1.3,2.8-2.6,4.6-3.6
	c2.1-1.1,3.9-0.6,4.9,1.3c0.6,1.2,0.3,2.4-0.3,3.5C92,214.7,91.6,215.2,91.3,215.8z M88.9,217.3c1.1-1.4,1.9-2.7,1.1-4.4
	c-0.3-0.6-0.6-1-1.3-0.9c-0.6,0.1-2.2,1.1-2.2,1.5c0,0.1,0.1,0.3,0.1,0.4C87.4,215,88.2,216.1,88.9,217.3z"/>
<path id="XMLID_14615_" class="bottle-slogan-letter" d="M51.6,257.2c0.6,0.6,1.2,0.6,1.9,0.3c1.6-0.7,2.7-3,2-4.5c-0.6-1.3-1.8-1.9-3.4-1.4
	c-1,0.3-1.9,0.8-2.9,1.2c-1.9,0.7-2.9,0.2-3.7-1.7c-1.6-3.9,2.2-8.2,5.4-8.6c1.2-0.1,1.9,0.5,2,1.9c0.1,1.1-0.7,2.4-1.7,2.5
	c-0.8,0.1-1-0.4-1-1c-0.1-1.1-0.3-1.2-1.3-0.7c-0.7,0.4-1.3,0.9-1.6,1.7c-0.3,0.8-0.2,1.4,0.4,2c0.5,0.6,1.1,0.7,1.8,0.4
	c0.7-0.3,1.5-0.6,2.2-0.9c1.3-0.6,2.7-1.3,4.1-0.2c1.4,1.1,1.9,2.6,1.7,4.3c-0.4,2.7-1.7,4.9-3.8,6.5c-0.7,0.5-1.4,0.8-2.3,0.9
	c-1.6,0.1-2.8-0.8-2.9-2.3c-0.2-1.6,1-3.1,2.5-3.2c0.5,0,1,0.1,1.2,0.6c0.3,0.6,0.3,1.1-0.1,1.7C52.1,256.9,51.8,257,51.6,257.2z"/>
<path id="XMLID_14614_" class="bottle-slogan-letter" d="M111.8,190.6c2.5-2.7,4.9-5.2,7.3-7.7c0.4-0.4,0.6-0.5,0.9,0.1c0.2,0.4,0.5,0.9,0.8,1.3
	c0.2,0.3,0.3,0.6-0.1,0.9c-0.6,0.4-0.4,0.9-0.1,1.4c1.4,2.1,2.9,4.2,4.3,6.3c0.7,1,1.3,2,1.6,3.1c0.4,1.2,0.2,2.2-0.5,3.2
	c-1,1.4-2.1,2.6-3.9,3c-2.6,0.6-5.3-2-4.9-4.6c0.2-1.1,0.8-1.9,1.9-2.4c1-0.4,2-0.2,2.6,0.6c0.6,0.9,0.7,2,0.1,2.8
	c-0.4,0.6-1.1,0.7-1.8,0.7c0.3,1,1,1.4,2,1.3c1.2-0.1,2.2-1.2,2.4-2.4c0.1-0.9-0.2-1.7-0.6-2.5c-1.4-2.7-3.2-5.2-5-7.7
	c-0.4-0.5-0.6-0.2-0.8,0.1c-1.3,1.2-2.6,2.3-3.9,3.5c-0.5,0.5-0.8,0.6-1.3,0C112.5,191.1,112.1,190.9,111.8,190.6z"/>
<path id="XMLID_14613_" class="bottle-slogan-letter" d="M101.7,217.5c1.8-0.3,2.2-1,1.3-2.4c-1.2-2-3-3.4-4.8-4.8c-1.5-1.2-3.1-2.3-4.8-3.4
	c0.8-0.8,1.5-1.6,2.3-2.5c0.4-0.5,0.6-0.3,0.9,0.1c1.4,2.5,3.5,4.5,5.8,6.6c-0.8-3.6-1.7-6.9-3.4-10c-0.4-0.7-0.3-1.1,0.3-1.7
	c0.5-0.4,0.9-1,1.5-1.7c0.6,2.2,1.1,4.1,1.6,6c0.8,3.1,1.8,6.1,2.4,9.3c0.3,1.4,0.3,2.8-0.2,4.2c-0.7,1.8-2.1,2.7-3.6,2.3
	c-1.4-0.3-3-2.4-2.9-3.9c0.1-1,0.7-1.5,1.5-1.9c0.7-0.3,1.2-0.1,1.7,0.4c0.7,0.7,1.1,1.5,0.8,2.6C102,217,101.8,217.2,101.7,217.5z"
	/>
<path id="XMLID_14612_" class="bottle-slogan-letter" d="M106.9,203.6c1.3-1.1,2.2-2.3,3.1-3.5c0.4-0.5,0.1-0.8-0.2-1.1c-1.1-1.6-1.1-1.6,0.4-2.9
	c0.6-0.5,1.2-1,1.9-1.6c0.4,0.7,0.3,1.5,0.5,2.2c0.2,0.4,0.3,0.7,0.8,0.3c0.2-0.2,0.5-0.4,0.7,0c0.2,0.3,0.5,0.7,0.1,1
	c-1,0.6-0.6,1.3-0.2,2.1c1.1,1.9,1.9,4,3.1,5.8c0.3,0.4,0.2,0.6-0.1,0.9c-0.6,0.6-1.2,1.1-1.7,1.7c-0.5,0.6-0.8,0.5-1-0.3
	c-0.5-2.3-1.4-4.4-2.6-6.5c-0.6-1-0.6-1-1.4-0.2c-1,0.9-1.9,1.9-2.9,2.8c-0.9,0.9-0.9,0.9-1.2-0.3c-0.7-2.8-1.1-5.6-1.6-8.4
	c-0.1-0.6-0.2-1.3-0.3-1.9c0-0.3-0.1-0.5,0.2-0.7c0.3-0.2,0.6,0,0.8,0.2c0.5,0.5,0.6,1.2,0.7,1.8
	C106.3,197.9,106.7,200.6,106.9,203.6z"/>
<path id="XMLID_14611_" class="bottle-slogan" d="M77.8,226.6c-0.8-1.2-1.5-2.2-2.2-3.3c-0.1-0.1-0.2-0.4-0.2-0.4c0.5-0.8,1.2-1.3,2.1-1.5
	c0.7-0.2,1.2,0.2,1.5,0.9C79.8,223.9,79,225.2,77.8,226.6z"/>
<path id="XMLID_14610_" class="bottle-slogan" d="M88.9,217.3c-0.8-1.2-1.5-2.3-2.3-3.4c-0.1-0.1-0.1-0.2-0.1-0.4c0-0.4,1.6-1.4,2.2-1.5
	c0.7-0.1,1.1,0.3,1.3,0.9C90.8,214.6,90,215.9,88.9,217.3z"/>
</svg>
