<?xml version="1.0" encoding="utf-8"?>
<svg version="1.1" id="Layer_1" xmlns="http://www.w3.org/2000/svg"  x="0px" y="0px"
	 width="220" height="220" viewBox="0 0 410 410"  xml:space="preserve">
	<style type="text/css">
		.bottle {fill: url(#bottle-gradient);}
		.bottle-slogan {fill: url(#bottle-slogan-gradient);}
		.background {fill: #F1EDEA;}
		.duke-nose {fill: url(#duke-nose-gradient);}
		.duke-body {fill: url(#duke-body-gradient);}
		.duke-pants {fill: #FFFFFF;}
	</style>
	<defs>
		<radialGradient id="bottle-gradient" cx="0.65" cy="0.35" r="0.40">
			<stop offset="0" style="stop-color:#D89574"/>
			<stop offset="1" style="stop-color:#8C4927"/>
		</radialGradient>
		<linearGradient id="bottle-slogan-gradient">
			<stop offset="30%" stop-color="#EE373A" />
			<stop offset="70%" stop-color="#EF4D4F" />
		</linearGradient>
		<radialGradient id="duke-nose-gradient" cx="0.70" cy="0.30" r="0.65">
			<stop offset="0" style="stop-color:#FBC8B4"/>
			<stop offset="1" style="stop-color:#ED1C24"/>
		</radialGradient>
		<linearGradient id="duke-body-gradient">
			<stop offset="20%" stop-color="#0A0C0C" />
			<stop offset="80%" stop-color="#202727" />
		</linearGradient>
	</defs>
	<g transform="translate(-165, -170)">
		<g id="XMLID_1_">
			<path id="XMLID_18_" class="bottle" d="M323,342c-0.8-4.8-1.5-9.7-2.3-14.5c-0.6-4.1-1.3-8.2-1.8-12.3c-0.4-3.2-1-6.3-1.1-9.5
				c-0.1-2.1-0.2-4.2-0.5-6.3c-1.1-7.8-3.5-15.2-6.8-22.4c-3.5-7.7-8.6-14.4-14.5-20.5c-4.8-5-10.3-9-16.1-12.8
				c-4.2-2.8-8.4-5.7-11.8-9.5c-3.2-3.6-5.8-7.6-7.5-12.1c-1.6-4.2-1.8-8.7-2.8-13.1c-0.4-1.7-0.3-3.2,0.8-4.7c1.7-2.2,1.6-4.2,0-6.5
				c-1.1-1.6-2.3-3.2-3.5-4.9c-0.4-0.5-0.4-0.8,0.4-0.9c0.7-0.1,1.4-0.3,2.1-0.5c1.1-0.3,1.8-1.2,1.6-2.2c-0.7-4.7-1.9-9.2-5-13
				c-0.6-0.8-1.3-1.4-2.2-1.7c-0.1,0-0.2,0-0.3-0.1c-2.2-0.2-4.4-0.1-6.7-0.2c-0.1,0.2-0.5,0.2-0.7,0.2c-5.8,0.3-11.6,1.1-17.4,1.8
				c-5.4,0.7-10.8,1.6-16.2,2.5c-5,0.8-9.8,1.9-14.7,3.1c-4.5,1.1-5.6,3.5-6.6,7.8c-0.7,3,0.2,6.1,0,9.2c0,1,0.5,1.6,1.6,1.4
				c0.9-0.1,1.9,0,2.9-0.2c0.7-0.2,1.2-0.1,1.1,0.9c-0.1,1.8-0.9,3.4-1.4,5.1c-0.4,1.4-1.1,2.8-1.1,4.4c0,1.9,0.7,3.4,2.3,4.3
				c1.5,0.8,2.1,2,2.3,3.6c0.6,4,1,7.9,1,11.9c0.1,7.1-2,13.6-5.4,19.7c-0.9,1.7-2.1,3.3-3,5c-1.2,2.2-3.2,3.9-4.7,5.8
				c-6.1,7.5-10.6,15.9-13.9,24.9c-1.7,4.6-2.7,9.3-3.1,14.2c-0.1,1-0.2,1.9-0.3,2.9c0,0.3,0,0.7-0.5,0.7v1.4c0.4,0.5,0.4,1,0,1.4v8.4
				c0.3,0.3,0.4,0.6,0,1v1c0.5,0,0.4,0.4,0.5,0.7c0.4,6,1.9,11.9,3.5,17.7c1.1,3.9,1.4,8,2.1,12c0.8,4.6,1.5,9.2,2.3,13.8
				c0.8,5.1,1.5,10.2,2.3,15.2c0.6,4.1,1.4,8.3,2,12.4c0.9,5.3,1.7,10.7,2.6,16c1,6,2,12,3,18c1,5.9,1.9,11.8,2.8,17.7
				c0.8,4.8,1.5,9.5,2.3,14.3c0.9,5.9,1.8,11.7,2.8,17.6c0.2,1.5,0.5,3.1,0.7,4.6c0.3,0.3,0.7,0.5,1.1,0.6c0.1-0.1,0.1-0.1,0.2-0.2
				c-1.4-8.7-2.8-17.4-4.1-26.1c-1.4-8.8-2.8-17.6-4.2-26.4c-1.6-9.7-3.2-19.3-4.7-28.9c-1.7-10.9-3.4-21.8-5.1-32.6
				c-1.3-8.3-2.7-16.6-4-24.9c0-0.1,0-0.2,0.2-0.4c0.4,2.4,0.8,4.8,1.2,7.2c1.1,6.7,2.2,13.3,3.2,20c1.1,6.9,2.2,13.7,3.3,20.6
				c1.2,7.8,2.5,15.5,3.7,23.3c1.2,7.2,2.3,14.5,3.5,21.7c1.2,7.3,2.3,14.6,3.5,21.9c1,6.3,2,12.7,3,19c0.3,1.8,0.6,3.6,0.9,5.4
				c0.1,0.7,0.4,1,0.9,1.2c0.9,0.4,1.9,0.9,3,1.4c-0.4-2.4-0.7-4.6-1-6.7c-1.3-8.3-2.7-16.6-4-24.8c-1.3-8-2.6-16-3.9-24
				c-1.4-8.5-2.8-17.1-4.2-25.6c-1.5-9.3-3-18.5-4.4-27.8c-1.6-10.1-3.4-20.1-5-30.2c-0.8-5.4-1.7-10.9-3.1-16.2
				c-1.8-6.6-1.6-13.3-0.9-20.1c0.6-5.6,1.9-10.9,3.8-16.1c1.5-4,3.4-7.7,6.1-11c2.1-2.6,4.6-4.9,6.9-7.4c0.2,0.4,0,0.7-0.1,1
				c-0.2,0.6-0.6,1.2,0.3,1.7c0.5,0.3,0.2,0.7-0.1,1c-1.2,1.5-1.7,3.2-2.5,4.9c-1,1.9-2.3,3.7-3.4,5.6c-0.6,0.9-1.1,1.7-0.6,2.9
				c0.2,0.5-0.2,0.9-0.7,1.1c-0.6,0.3-0.9,0.9-0.7,1.5c0.4,1.2,0,2.2-0.5,3.2c-1.8,3.6-2.8,7.5-3.5,11.4c-0.4,2-0.2,4.1-0.4,6.1
				c-0.7,4.6,0.2,9.1,0.8,13.7c1,7.4,2.6,14.7,3.8,22c1.1,6.3,2,12.6,2.9,18.9c0.6,4.2,0.8,8.5,1.4,12.7c1.1,7.9,3,15.7,4.1,23.7
				c0.4,3,1.1,6,1.7,9.1c0.6,3.1,0.5,6.3,1.4,9.3c0.5,1.5,0.4,3,0.4,4.5c0,2.8,0.9,5.4,1.1,8.2c0.5,7,2,13.8,2.9,20.8
				c0.7,5.6,1.6,11.1,2.5,16.7c0.5,3.2,0.9,6.4,1.4,9.9c1-2.5,2.6-4.1,4.5-5.5c0.6-0.4,0.3-0.9,0.3-1.4c-0.7-4.3-1.4-8.5-2-12.8
				c-1.2-7.2-2.3-14.3-3.5-21.5c-1.3-8.1-2.6-16.1-4-24.2c-1.4-8.4-2.8-16.9-4.2-25.3c-1.5-8.8-3-17.6-4.4-26.3
				c-1-5.7-1.9-11.5-2.9-17.2c-0.1-0.9,0.2-1.3,1-1.4c2.8-0.4,5.5-0.7,8.3-1.1c6.7-0.9,13.4-1.8,20.1-2.8c6.3-0.9,12.6-1.8,19-2.8
				c8-1.2,16-2.4,24-3.7c10.9-1.8,21.7-3.8,32.5-5.9c4.7-0.9,9.5-1.9,14.2-2.8c1.9-0.4,2-0.3,2.3,1.6c1.4,8.5,2.7,17,4,25.5
				c1.1,6.7,2.1,13.4,3.2,20.1c0,0.3,0.1,0.5,0.2,0.9c2.4-2.8,4.7-5.5,7-8.2c0.2-0.2,0.3-0.4,0.5-0.5c1.8-1.4,2-3.1,1.7-5.3
				c-1.7-9.8-3.2-19.6-4.7-29.4c-1.1-6.9-2.1-13.9-3.1-20.8c-0.3-2.2,0-4.5-0.3-6.7c-1.6-13.1-6.3-24.9-14.3-35.4
				c-5.9-7.9-13.5-13.8-21.9-19c-11.5-7.1-18.7-17.5-22.1-30.5c-0.7-2.7-0.7-5.5-1.3-8.2c-0.3-1.3-0.4-2.5-1.9-3.2
				c0.8-0.5,1.4-0.9,2-1.4c2-1.6,2.3-3.6,0.8-5.6c-0.9-1.3-1.7-2.6-2.8-3.7c-0.7-0.7-0.7-1.7-1-2.5c-0.4-1.6-0.7-1.8-2.2-1.3
				c-3.5,1.1-7.2,1.4-10.8,1.9c-2.8,0.3-5.7,1-8.5,1.2c-3.4,0.3-6.6,1-10,1.4c-5.6,0.7-11.1,1.4-16.7,2.2c-2.4,0.3-4.8,1-7.2,1.2
				c-0.6,0-1,0.4-1,1c0.1,2.9-1.3,5.4-2.1,8.1c-0.1,0.5-0.3,0.9-0.4,1.4c-0.5,2.4,0.6,4.1,3.1,4.6c0.6,0.1,1.3,0.2,2.1,0.3
				c-1.4,1-1,2.2-0.8,3.5c-0.1-0.1-0.1-0.1-0.1-0.1c-0.1-2-1.2-3.1-3-4c-1.5-0.7-2-2.9-1.5-4.8c0.6-1.8,1.2-3.6,1.8-5.4
				c0.4-1.1,0.5-2.2,0.4-3.4c-0.1-0.9-0.6-1.2-1.5-1.1c-1.1,0.1-2.2,0.2-3.2,0.2c-0.4,0-0.7,0-0.7-0.5c0.1-3-0.6-5.9,0-8.9
				c0.3-1.5,0.9-3,1.6-4.4c0.5-1.1,1.4-1.6,2.5-1.9c6.5-1.8,13-3.1,19.7-4.1c5.1-0.8,10.1-1.6,15.2-2.2c5.3-0.7,10.7-1.2,16.1-1.6
				c1.3-0.1,2.6-0.2,3.9-0.2c2,0,3.7,0.8,4.7,2.6c1.9,3.4,3.3,7,3.6,10.9c0.1,1.1-0.3,1.6-1.3,1.7c-0.6,0.1-1.2,0.2-1.8,0.3
				c-1.5,0.3-1.8,1-0.9,2.3c1,1.4,2,2.8,3,4.2c0.3,0.5,0.7,0.9,0.9,1.4c1.1,1.9,1.1,3.7-0.5,5.3c-1.1,1.2-1.3,2.4-1,3.9
				c0.8,4.2,1.3,8.5,2.5,12.7c2.6,8.7,8.1,15.3,15.2,20.7c4.4,3.2,9.1,6,13.3,9.3c15,11.9,24.4,27.2,28,46c0.7,3.9,1.1,7.7,1.3,11.7
				c0.2,4.8,1.2,9.4,1.9,14.1c1.1,7.4,2.3,14.7,3.5,22.1c0.8,5.2,1.6,10.3,2.5,15.5c0,0.2,0.1,0.4,0.2,0.6c0.5-0.2,0.7-0.6,1-1
				C324.8,353.7,323.9,347.8,323,342z M313.9,318.2c-0.6-0.6-0.5-1.5-0.6-2.2C313.7,316.7,313.8,317.4,313.9,318.2z M312.2,303.6
				c0.2,0.8,0.2,1.3,0,2C312,304.9,312,304.3,312.2,303.6z M311.8,299.3c0.1,0.8,0.1,1.6-0.3,2.5c-0.2-1.3-0.5-2.7-0.7-4
				c-0.9-4.6-1.9-9.2-3.7-13.6c-0.1-0.2-0.2-0.3,0-0.5c1,1.1,1.4,2.5,1.9,3.9C310.3,291.4,311.2,295.3,311.8,299.3z M306.8,283.4
				L306.8,283.4c0.2,0,0.2,0.1,0.3,0.2C306.8,283.8,306.8,283.5,306.8,283.4L306.8,283.4z M305.9,281.6c-0.6-1.3-1.8-2.3-1.7-3.9
				C305.1,278.9,306,280,305.9,281.6z M168.7,310c0.4,3.9,0.5,9.3,1.4,14.5C168.9,319.3,168.4,314,168.7,310z M172.7,334.7
				c0.5,0.6,0.5,1.1,0.4,1.9C172.8,335.9,172.6,335.4,172.7,334.7z M172.5,334c-0.4-0.7-0.5-1.3-0.6-2.2
				C172.5,332.5,172.6,333.2,172.5,334z M199.2,224c-0.1-0.7-0.2-1.9-0.3-3.2C199.3,222.1,199.3,223.3,199.2,224z M199.5,227.6
				c0.4,0.4,0.2,0.8,0.2,1.3c0.1,7.7-1.8,14.9-4.9,21.9c-1.8,4-4.1,7.6-7.2,10.8c-9.1,9.4-14.5,20.7-17.2,33.4
				c-0.7,3.5-1.2,7-1.4,10.5c0,0.3,0.1,0.7-0.3,0.9c0.8-17,6.7-32,17.6-45c3.1-3.7,6-7.6,8.2-11.9
				C198.1,242.5,199.7,235.3,199.5,227.6z"/>
			<path id="XMLID_353_" class="bottle" d="M202.3,233.2C202.3,233.1,202.3,233.1,202.3,233.2c-0.1-0.1-0.1,0-0.1,0c0,0,0,0.1,0,0.1
				C202.3,233.2,202.3,233.2,202.3,233.2z"/>
			<path id="XMLID_352_" class="bottle" d="M315.6,329.2c0-0.1,0.1-0.1,0.1-0.2c0-0.1,0-0.2-0.1-0.2c0,0-0.1,0.1,0,0.2
				C315.5,329.1,315.5,329.1,315.6,329.2z"/>
			<path id="XMLID_28_" class="background" d="M494.4,429.4c-0.7-1.6-1.8-2.9-3.3-4c-0.4-0.3-0.3-0.5,0-0.9c1-1.2,1.8-2.5,2.3-3.9
				c0.3-0.9,0.7-1.9,0.4-2.9c-1-4.1-5.1-7.8-9.5-8.3c-2.8-0.3-5.7-0.4-8.4-1c-1.9-0.4-1.9-0.4-1.4-2.3c0.1-0.3,0.1-0.6,0.2-0.8
				c1.6-4.4,1.7-8.7-0.1-13.2c-0.7-1.8-1.6-3.6-2.9-5c-4.3-4.6-11.1-5.6-16.5-2.5c-2.6,1.5-3.2,3.8-1.6,6.3c0.3,0.5,0.5,1,0.6,1.6
				c1.1,5.3,1.8,10.7,1.7,16.2c-0.1,4.2-1.6,7.9-4.6,11c-1.2,1.2-2.2,2.5-3,4c-1.6,3-2.4,6.3-3.1,9.6c-0.4,2-1.1,4-0.4,6
				c0.2,0.7,0.1,1.1-0.4,1.6c-5.1,5.6-10.1,11.1-15.1,16.7c-2.4,2.7-4.9,5.4-7.3,8.1c-0.3,0.3-0.5,0.8-1,0.2c-2-2.3-4.6-3.6-7.6-3.8
				c-2.3-0.2-2.9-1.4-3.4-3.4c-4.9-20-11-39.6-17.8-59c-6.8-19.3-14.1-38.4-21.7-57.4c-2.3-5.9-4.7-11.9-7-17.8
				c-0.5-1.4-1.6-1.9-2.8-1.3c-0.4,0.2-0.7,0.5-1,0.8c-9.8,10-19.6,19.9-29,30.3c-1.6,1.7-3.2,3.5-4.8,5.2c-0.2,0.4-0.5,0.8-1,1
				c-0.1-0.3-0.2-0.4-0.2-0.6c-0.8-5.2-1.7-10.3-2.5-15.5c-1.2-7.4-2.4-14.7-3.5-22.1c-0.7-4.7-1.7-9.4-1.9-14.1
				c-0.2-3.9-0.6-7.8-1.3-11.7c-3.6-18.8-13-34.1-28-46c-4.3-3.4-9-6.1-13.3-9.3c-7.1-5.3-12.6-12-15.2-20.7
				c-1.2-4.1-1.7-8.4-2.5-12.7c-0.3-1.5-0.1-2.7,1-3.9c1.6-1.6,1.6-3.3,0.5-5.3c-0.3-0.5-0.6-0.9-0.9-1.4c-1-1.4-2-2.8-3-4.2
				c-0.9-1.3-0.5-2,0.9-2.3c0.6-0.1,1.2-0.2,1.8-0.3c1-0.1,1.4-0.6,1.3-1.7c-0.3-3.9-1.8-7.5-3.6-10.9c-1-1.8-2.7-2.6-4.7-2.6
				c-1.3,0-2.6,0.1-3.9,0.2c-5.4,0.4-10.8,0.9-16.1,1.6c-5.1,0.7-10.1,1.5-15.2,2.2c-6.6,1-13.2,2.3-19.7,4.1c-1.1,0.3-2,0.8-2.5,1.9
				c-0.7,1.4-1.3,2.8-1.6,4.4c-0.6,3,0.1,5.9,0,8.9c0,0.5,0.3,0.5,0.7,0.5c1.1-0.1,2.2-0.1,3.2-0.2c0.9-0.1,1.4,0.3,1.5,1.1
				c0.2,1.2,0,2.3-0.4,3.4c-0.6,1.8-1.3,3.6-1.8,5.4c-0.6,1.9-0.1,4.1,1.5,4.8c1.8,0.9,2.9,2,3,4c0,0,0.1,0,0.1,0.1
				c-0.3-1.3-0.6-2.5,0.8-3.5c-0.8-0.1-1.4-0.2-2.1-0.3c-2.5-0.5-3.6-2.2-3.1-4.6c0.1-0.5,0.3-0.9,0.4-1.4c0.8-2.7,2.1-5.2,2.1-8.1
				c0-0.6,0.4-1,1-1c2.4-0.2,4.8-0.8,7.2-1.2c5.6-0.8,11.1-1.4,16.7-2.2c3.3-0.4,6.6-1.2,10-1.4c2.9-0.2,5.7-0.9,8.5-1.2
				c3.6-0.4,7.3-0.8,10.8-1.9c1.6-0.5,1.8-0.3,2.2,1.3c0.2,0.9,0.3,1.9,1,2.5c1.1,1.1,1.9,2.4,2.8,3.7c1.5,2,1.2,4.1-0.8,5.6
				c-0.6,0.5-1.2,0.8-2,1.4c1.4,0.7,1.6,1.9,1.9,3.2c0.6,2.7,0.6,5.5,1.3,8.2c3.4,13,10.6,23.4,22.1,30.5c8.3,5.2,15.9,11.1,21.9,19
				c7.9,10.5,12.6,22.4,14.3,35.4c0.3,2.2,0,4.5,0.3,6.7c1,7,2,13.9,3.1,20.8c1.5,9.8,3.1,19.6,4.7,29.4c0.4,2.2,0.2,3.9-1.7,5.3
				c-0.2,0.1-0.3,0.4-0.5,0.5c-2.3,2.7-4.6,5.4-7,8.2c-0.1-0.4-0.2-0.6-0.2-0.9c-1.1-6.7-2.1-13.4-3.2-20.1c-1.3-8.5-2.7-17-4-25.5
				c-0.3-1.9-0.4-2-2.3-1.6c-4.7,0.9-9.5,1.9-14.2,2.8c-10.8,2.1-21.6,4.1-32.5,5.9c-8,1.3-16,2.5-24,3.7c-6.3,1-12.6,1.9-19,2.8
				c-6.7,0.9-13.4,1.8-20.1,2.8c-2.8,0.4-5.5,0.8-8.3,1.1c-0.8,0.1-1.2,0.5-1,1.4c1,5.7,2,11.5,2.9,17.2c1.5,8.8,3,17.6,4.4,26.3
				c1.4,8.4,2.8,16.9,4.2,25.3c1.3,8.1,2.7,16.1,4,24.2c1.2,7.2,2.3,14.3,3.5,21.5c0.7,4.3,1.4,8.5,2,12.8c0.1,0.5,0.3,1-0.3,1.4
				c-1.9,1.4-3.4,3-4.5,5.5c-0.5-3.6-0.9-6.7-1.4-9.9c-0.8-5.6-1.8-11.1-2.5-16.7c-0.8-6.9-2.3-13.8-2.9-20.8
				c-0.2-2.7-1.1-5.4-1.1-8.2c0-1.5,0.1-3-0.4-4.5c-1-3-0.8-6.2-1.4-9.3c-0.6-3-1.3-6-1.7-9.1c-1.1-8-3-15.8-4.1-23.7
				c-0.6-4.2-0.8-8.5-1.4-12.7c-0.9-6.3-1.9-12.6-2.9-18.9c-1.2-7.4-2.8-14.7-3.8-22c-0.6-4.6-1.5-9-0.8-13.7c0.3-2,0.1-4.1,0.4-6.1
				c0.7-3.9,1.7-7.8,3.5-11.4c0.5-1,0.9-2,0.5-3.2c-0.2-0.6,0-1.2,0.7-1.5c0.4-0.2,0.9-0.6,0.7-1.1c-0.5-1.1,0-2,0.6-2.9
				c1.2-1.9,2.5-3.7,3.4-5.6c0.8-1.6,1.4-3.4,2.5-4.9c0.3-0.3,0.5-0.8,0.1-1c-0.9-0.5-0.5-1.1-0.3-1.7c0.1-0.3,0.4-0.6,0.1-1
				c-2.4,2.5-4.8,4.7-6.9,7.4c-2.7,3.4-4.7,7.1-6.1,11c-1.9,5.2-3.2,10.6-3.8,16.1c-0.8,6.8-0.9,13.5,0.9,20.1
				c1.4,5.3,2.3,10.8,3.1,16.2c1.5,10.1,3.3,20.2,5,30.2c1.5,9.3,2.9,18.5,4.4,27.8c1.4,8.5,2.8,17.1,4.2,25.6c1.3,8,2.6,16,3.9,24
				c1.3,8.3,2.7,16.5,4,24.8c0.4,2.2,0.7,4.4,1,6.7c-1.1-0.5-2-1-3-1.4c-0.6-0.2-0.9-0.6-0.9-1.2c-0.2-1.8-0.6-3.6-0.9-5.4
				c-1-6.3-2-12.7-3-19c-1.2-7.3-2.3-14.6-3.5-21.9c-1.2-7.2-2.3-14.5-3.5-21.7c-1.2-7.8-2.5-15.5-3.7-23.3
				c-1.1-6.9-2.2-13.7-3.3-20.6c-1.1-6.7-2.1-13.3-3.2-20c-0.4-2.4-0.8-4.8-1.2-7.2c-0.2,0.1-0.2,0.3-0.2,0.4c1.3,8.3,2.7,16.6,4,24.9
				c1.7,10.9,3.4,21.8,5.1,32.6c1.5,9.7,3.2,19.3,4.7,28.9c1.4,8.8,2.8,17.6,4.2,26.4c1.4,8.7,2.8,17.4,4.1,26.1c0,0.1,0,0.2,0,0.3
				c-0.1,0-0.2-0.1-0.3-0.1c-0.4-0.1-0.8-0.3-1.1-0.6c-2.5-1.2-4.8-2.8-7.5-3.8c-1.4-0.5-2.7-1.1-4.3-0.8c-0.9,0.1-1.7,0.5-2.3,1.2
				c-2.2,2.6-3.1,5.6-2.7,8.9c0.3,2.8,2.1,4.4,4.7,5.1c4.5,1.2,9,2.2,13.5,3.4c0.1,0,0.2,0.1,0.5,0.2c-2,0.6-3.9,1.2-5.7,1.7
				c-2,0.6-4,1.2-5.7,2.4c-3,2.2-4.6,5.3-5.6,8.7c-0.7,2.5,0.5,4.6,3.1,5.7c5.5,2.4,10.9,2.9,16-1c0.3-0.3,0.6-0.6,1.2-0.8
				c0.4,9.5,3,18.5,5.2,27.4c0.3-0.6,0.2-1.6-0.1-2.5c-1.2-4.2-2.4-8.4-3.3-12.7c-0.8-3.8-1.3-7.7-1.6-11.6c0-0.7,0.2-1.2,0.8-1.5
				c0.9-0.5,1.8-1.6,2.5-1.3c0.7,0.3,0.2,1.7,0.3,2.7c0.2,3,0.4,6.1,1.1,9c0.4,1.7,0.2,3.3,0,5c-0.2,1.3-0.2,2.5,0.1,3.8
				c0.3,1.4,1.1,2.6,2.3,3.3c0.6,0.3,0.9,0.8,1.1,1.5c0.4,1.2,0.8,2.3,1.4,3.4c0-1.4-0.7-2.6-0.9-4.1c1.5,0.4,3,0.4,4.5,0
				c2.6-0.6,4.2-2.4,5.1-4.8c1.2-3.2,2-6.5,2.1-9.9c0.1-4.4,1.4-8.4,4.1-11.9c0.3-0.4,0.6-0.7,1-1c1.2-1,2.3-0.9,3.4,0.1
				c0.7,0.6,1.2,1.3,1.6,2.1c1.9,3.8,5.1,5.7,9.2,6.3c1,0.2,2,0.3,3.1,0.2c-1.2,4.7-2.4,9.3-3.3,14c-1.4,7.2-2.8,14.4-2.7,21.7
				c0.1,4.3,0.8,8.4,3.3,12c0.5,0.6,1,1.3,1.5,1.9c2.4,2.1,5.1,3.6,8.3,4.2c4.8,0.8,9.4,0,13.8-2.1c3.6-1.7,6.8-4,10.2-5.9
				c0.3-0.2,0.6-0.4,1-0.4c1-0.7,2-1.3,3.2-1.5c1.2-0.2,1.8-1.3,2.8-1.8c3.4-1.6,6.8-3.2,10.2-4.6c7.3-2.9,14.8-5.3,22.5-6.6
				c8.8-1.5,17.5-1.4,26.1,0.8c3.2,0.6,6.3,1.7,9.3,2.9c6.8,2.8,13,6.5,18.1,11.8c2.8,2.9,5,6.4,7.5,9.5c2.2,2.7,4.4,5.3,7.2,7.4
				c1.9,1.4,4.1,2.5,6.4,3.1c0.4,0.1,0.4,0.1,0.6,0.5h1c0-0.1,0-0.2,0.1-0.2c0.1,0,0.2,0,0.2,0.2h5.5c-0.2-0.2-0.2-0.3,0-0.4
				c5.6-1.4,8.7-5.6,11.3-10.2c3.3-5.8,5.1-12.2,6.7-18.6c1.8-7.3,3.1-14.7,4-22.2c1-7.8,1.4-15.7,0.6-23.6c-0.5-4.9-1.1-9.8-1.9-14.7
				c-0.1-0.8,0-1.5,0.7-2c1.5-1.2,2.8-2.5,3.8-4.1c0.7-1.1,1.2-2.2,1.4-3.4c0.4-1.9,1.3-3.6,2.7-5c8.8-8.6,17.4-17.4,26.5-25.7
				c0.5-0.4,0.8-0.5,1.5-0.3c3.3,1.2,6.8,1.3,10.2,0.5c0.6-0.1,1.2-0.2,1.7-0.5c2.1-1.1,4-0.6,5.9,0.3c2.3,1,4.5,2.2,7,2.8
				c5.1,1.2,10.3-2,11.3-7c0.1-0.3,0.2-0.6,0-0.8c-0.6-1.2,0.1-1.4,1.1-1.7c2.6-0.7,3.7-2.9,4.7-5.2
				C494.7,433.5,494.9,431.4,494.4,429.4z M249.7,176.8c-14.1,1.8-28.2,3.6-42.3,5.3c0-0.1,0-0.2,0-0.3c14-2.7,28.1-4.5,42.4-5.4
				C249.8,176.6,249.8,176.7,249.7,176.8z M191.4,350c-0.4,0.1-0.8-0.2-0.9-0.8c-0.1-0.7,0.6-0.7,1-0.7c12.4-1.6,24.7-3.6,37.1-5.5
				c10.9-1.7,21.8-3.4,32.6-5.1c12.9-2.1,25.7-4.3,38.5-6.8c1.3-0.3,2.7-0.5,4-0.7c0.5-0.1,1.3-0.4,1.4,0.4c0.1,0.7-0.5,0.9-1.2,1.1
				c-3.9,0.9-7.8,1.6-11.7,2.3c-9.2,1.7-18.5,3.3-27.7,4.9c-8.9,1.6-17.8,3.1-26.8,4.4c-10.8,1.6-21.6,3.2-32.3,4.7
				C200.8,348.8,196.2,349.4,191.4,350z M206.1,438c9-10.6,19-20.1,29.4-29.3c14-12.3,28.3-24.1,42.1-36.6c10.3-9.4,20-19.3,28.2-30.7
				c0.2-0.3,0.5-0.7,0.8-1c0.4,0.8,0.3,1.6,0.5,2.4c0.5-0.1,0.6-0.7,1.1-0.8c0.3,1.8,0.6,3.5,0.8,5.3c1.3,8.7,2.7,17.4,4,26
				c0.1,0.5,0.1,0.9-0.2,1.3c-3.1,3.9-6.2,7.7-9.3,11.6c-0.1,0.1-0.2,0.1-0.3,0.1c-0.4,1-1.2,1.8-1.8,2.6c-4.9,6.5-9.6,13.1-14,19.8
				c-0.5,0.7-1,1.3-1.7,1.9c-11.3,9.8-22.6,19.6-33.9,29.3c-0.4,0.3-0.8,0.6-1.4,0.6c-7,0.1-13.9,1.4-20.4,4c-0.1,0-0.2,0.1-0.5,0.1
				c0.3-1.2,0.5-2.3,0.5-3.4c-0.1-1.2-0.5-2.2-1.4-3.1c-0.9-0.9-1.9-1.1-3.1-0.8c-1.2,0.3-2.2,0.9-3.3,1.4c-1.6,0.7-2.4,0.6-3.1-0.5
				c-0.6-1-0.3-2.3,0.9-3.3c0.3-0.2,0.7-0.5,1-0.6c0.6-0.3,1-0.1,1,0.6c0,0.6,0,1.2,0.7,1.4c0.7,0.2,1.2-0.2,1.6-0.7
				c0.8-0.9,0.7-1.9,0.4-2.9c-0.1-0.3-0.4-0.5-0.3-0.9c-1.4-0.5-2.6-0.2-3.9,0.5c-3.2,1.8-4.8,5.5-3.7,8.5c0.8,2.1,2,2.7,4.1,1.9
				c1-0.4,2-0.9,3.1-1.3c1.1-0.3,2.2-0.4,3,0.6c0.8,0.8,1.1,1.8,0.8,3c-0.1,0.5-0.4,0.7-0.8,1c-0.6,0.5-1.1,0.9-1.6,1.4
				c-0.6,0.8-1.2,0.7-1.9,0.1c0-0.3,0.3-0.4,0.5-0.5c0.5-0.6,0.4-1.2,0.2-1.8c-0.3-0.7-0.9-0.7-1.5-0.7c-1.4,0.2-2.6,1.5-2.6,3
				c0,1.5,0.9,2.7,2.4,2.9c0.3,0,0.5,0,1,0c-1.3,2.8-2,5.6-2.6,8.4c-0.4,2.1-0.9,4.2-1.3,6.3c-0.1,0.4-0.1,0.7-0.7,0.6
				c-2.7-0.7-5,1.5-5.8,3.6c-0.1,0.4,0,0.9-0.6,1.1c-0.8,0.3-1.6,0.5-2.4,0.6c-0.4,0.1-0.3-0.5-0.4-0.8c-0.5-3.1-1-6.2-1.5-9.3
				c-1.1-6.9-2.1-13.8-3.2-20.7C205.2,439.5,205.5,438.7,206.1,438z M206.3,458.6c0,0,0-0.2,0-0.2c0.2,0,0.4-0.1,0.8-0.1
				C206.7,458.7,206.6,458.8,206.3,458.6z M205.5,504.8c1.9,0.5,2.3,3,0.9,7.2C206.1,509.6,205.8,507.2,205.5,504.8z M490.9,438.7
				c-1,1-2.3,1.1-3.6,1.1c-0.4,0-0.8,0-1.2,0c-0.8,0.1-0.9,0.6-0.4,1.1c0.6,0.6,1.5,1.1,1.4,2.1c0,1.1-0.6,2-1.3,2.9
				c-2.1,3-5.4,4-9.2,2.7c-2.5-0.8-4.7-2.2-7.2-3.1c-1.6-0.5-3.2-0.6-4.8,0.1c-3.4,1.4-6.9,1.5-10.5,0.7c-0.5-0.1-1-0.3-1.3-0.6
				c-0.9-1-1.6-0.4-2.3,0.2c-5.2,4.7-10.3,9.6-15.3,14.6c-3.9,3.8-7.7,7.7-11.6,11.5c-1.7,1.6-2.9,3.5-3.3,5.8c-0.6,2.9-2.4,5-4.6,6.8
				c-1.3,1-1.6,2.2-1.4,3.8c1.3,7.6,2.2,15.2,2.3,22.9c0,6.5-0.7,12.9-1.6,19.3c-1.2,8.1-2.7,16.1-5.1,23.9
				c-1.7,5.5-3.7,10.9-7.2,15.5c-2.1,2.8-4.7,5.1-8.3,5.7c-4.8,0.9-9.1-0.6-12.8-3.7c-3.2-2.6-5.9-5.8-8.2-9.2
				c-7.3-10.8-17.6-17.2-29.7-20.9c-8.1-2.5-16.4-3.4-24.8-2.6c-8.4,0.8-16.4,3-24.3,5.8c-9.9,3.6-19.2,8.4-28.1,13.8
				c-2.8,1.7-5.7,3.3-9,3.9c-4.7,0.9-9.3,0.7-13.4-2.3c-3.3-2.4-4.8-5.8-5.5-9.7c-0.8-4.8-0.3-9.6,0.3-14.4c1.2-9,3.1-17.9,5.6-26.6
				c0.3-0.9-0.2-0.9-0.8-0.7c-2.9,0.5-5.6,0-8.1-1.3c-1.6-0.8-2.9-2.2-3.7-3.8c-0.5-0.9-1-1.9-1.8-2.7c-2-2-4.3-2-6.3-0.1
				c-0.9,0.9-1.7,1.9-2.3,3c-1.9,3.4-3,7-3,10.9c-0.1,3.1-0.7,6.2-1.9,9.1c-1.3,3.3-4,4.7-7.5,3.9c-2-0.4-3.1-1.8-3.1-3.8
				c0-3.2,0.8-6.3,1.6-9.4c0.6-2.4,1.4-4.8,1.3-7.4c0-0.5-0.1-1-0.2-1.5c-0.7-2.6-2.7-3.8-5.3-2.9c-2.3,0.8-4.3,2.2-6.1,3.7
				c-3.4,2.8-7.2,3.2-11.3,2c-1-0.3-1.9-0.6-2.8-1c-2.5-1-3.1-2.7-2.1-5.2c1.7-4.5,4.7-7.4,9.5-8.6c2.6-0.6,5.1-1.4,7.6-2.4
				c0.6-0.2,1.5-0.4,1.5-1.1c0-0.8-1-0.8-1.6-1c-4.7-1.4-9.5-2.4-14.2-3.6c-4.4-1.1-5.7-2.9-4.7-7.8c0.2-1,0.7-1.9,1.2-2.7
				c1.1-1.8,2.1-2.2,4.1-1.6c1.6,0.5,3,1.2,4.5,1.9c2.8,1.5,5.5,3.1,8.4,4.5c1.1,0.5,2.1,0.9,3.3,1.1c1.6,0.3,2.3-0.2,3-1.7
				c2-4.1,5.4-6.4,9.7-7.4c0.9-0.2,1.4-0.5,1.5-1.4c0.2-1.3,0.9-2.3,2.1-3c0.8-0.5,1.6-0.5,2.5-0.1c1.2,0.6,1.5,0.5,1.8-0.9
				c0.7-3.2,1.3-6.3,2-9.5c0.5-2.3,1.2-4.6,2.4-6.7c1.2-2.2,2.9-3.7,5.2-4.5c8-3,16.2-4.3,24.8-3.7c1.2,0.1,2.5,0.2,3.7,0.1
				c0.9-0.1,1.8-0.5,2.2-1.2c1.7-3.1,4.5-3.4,7.6-2.8c2.8,0.5,2.8,0.5,4.1-1.9c9.8-18.6,21.5-36,34.4-52.6
				c14.9-19.1,31.4-36.8,48.4-54c1.5-1.6,3.1-3.1,4.6-4.7c0.3-0.3,0.5-0.6,1-0.8c12.6,31.8,25.3,63.5,35.7,96.1
				c4.3,13.5,8.3,27,11.5,40.8c0.3,1.2,0.8,1.7,2.1,1.8c2.7,0.2,5.3,0.9,7.5,2.6c1.1,0.9,1.9,2,2.7,3.1c5.7-6.3,11.4-12.5,17-18.8
				c2.7-2.9,5.3-5.9,8-8.8c0.6-0.7,0.8-1.2,0.3-2.1c-0.7-1.2-0.4-2.6-0.2-3.9c0.5-2.8,1.2-5.6,2.2-8.3c0.8-2.3,2-4.3,3.8-6
				c3.6-3.5,5.3-7.9,5.3-12.9c0-5.6-0.6-11.1-1.9-16.5c-0.1-0.6-0.4-1.2-0.7-1.7c-0.9-1.3-0.7-2.6,0.6-3.5c6-4.2,15.2-1.1,17.4,6
				c0.5,1.5,0.9,3,1.3,4.6c0.5,1.9,0,3.7-0.5,5.5c-0.4,1.6-0.8,3.2-1.2,4.9c-0.3,1.2-0.1,1.6,1.1,2.1c1.9,0.8,4,1,6.1,1.2
				c1.9,0.2,3.9,0.2,5.8,0.7c3.3,0.9,5.3,3.3,6.6,6.3c0.3,0.6,0.2,1.2,0,1.9c-0.8,2.3-2,4.2-4.2,5.6c1.4,1.1,2.9,2.1,4,3.5
				C494.8,432.2,493.4,436.1,490.9,438.7z"/>
			<path id="XMLID_343_" class="background" d="M208.9,471.5c-0.1,0-0.1-0.1-0.2-0.1c-0.1,0-0.1,0-0.2,0.1c0.1,0,0.1,0.1,0.2,0.1
				C208.8,471.6,208.9,471.5,208.9,471.5z"/>
			<path id="XMLID_342_" class="background" d="M208.9,469.6C208.9,469.6,208.8,469.5,208.9,469.6c-0.1-0.1-0.2,0-0.2,0
				C208.7,469.6,208.8,469.6,208.9,469.6C208.8,469.7,208.9,469.6,208.9,469.6z"/>
			<path id="XMLID_341_" class="background" d="M206.7,182.3C206.7,182.3,206.7,182.3,206.7,182.3C206.7,182.3,206.7,182.3,206.7,182.3
				C206.8,182.3,206.7,182.3,206.7,182.3z"/>
			<path id="XMLID_336_" class="duke-body" d="M167.3,304.8c0.4,0.5,0.4,1,0,1.4C167.3,305.8,167.3,305.3,167.3,304.8z"/>
			<path id="XMLID_334_" class="duke-body" d="M167.3,314.6c0.3,0.3,0.4,0.6,0,1C167.3,315.3,167.3,315,167.3,314.6z"/>
			<path id="XMLID_330_" class="duke-body" d="M389.6,577.7c0-0.1,0-0.2,0.1-0.2c0.1,0,0.2,0,0.2,0.2C389.7,577.7,389.7,577.7,389.6,577.7z"
				/>
			<path id="XMLID_329_" class="background" d="M199.5,227.6c0.4,0.4,0.2,0.8,0.2,1.3c0.1,7.7-1.8,14.9-4.9,21.9c-1.8,4-4.1,7.6-7.2,10.8
				c-9.1,9.4-14.5,20.7-17.2,33.4c-0.7,3.5-1.2,7-1.4,10.5c0,0.3,0.1,0.7-0.3,0.9c0.8-17,6.7-32,17.6-45c3.1-3.7,6-7.6,8.2-11.9
				C198.1,242.5,199.7,235.3,199.5,227.6z"/>
			<path id="XMLID_328_" class="background" d="M307,283.7c1,1.1,1.4,2.5,1.9,3.9c1.4,3.8,2.3,7.7,2.8,11.7c0.1,0.8,0.1,1.6-0.3,2.5
				c-0.2-1.3-0.5-2.7-0.7-4c-0.9-4.6-1.9-9.2-3.7-13.6C307,284,306.8,283.8,307,283.7L307,283.7z"/>
			<path id="XMLID_327_" class="background" d="M170.1,324.5c-1.2-5.2-1.7-10.5-1.4-14.5C169,313.9,169.1,319.2,170.1,324.5z"/>
			<path id="XMLID_326_" class="background" d="M305.9,281.6c-0.6-1.3-1.8-2.3-1.7-3.9C305.1,278.9,306,280.1,305.9,281.6z"/>
			<path id="XMLID_325_" class="background" d="M198.9,220.8c0.4,1.3,0.5,2.5,0.3,3.2C199.1,223.3,199,222.1,198.9,220.8z"/>
			<path id="XMLID_324_" class="background" d="M313.3,316c0.4,0.7,0.5,1.5,0.6,2.2C313.3,317.5,313.4,316.7,313.3,316z"/>
			<path id="XMLID_323_" class="background" d="M171.9,331.8c0.6,0.8,0.7,1.4,0.6,2.2C172.1,333.4,172,332.7,171.9,331.8z"/>
			<path id="XMLID_322_" class="background" d="M172.7,334.7c0.5,0.6,0.5,1.1,0.4,1.9C172.8,335.9,172.6,335.4,172.7,334.7z"/>
			<path id="XMLID_321_" class="background" d="M312.2,305.6c-0.2-0.7-0.2-1.2,0-2C312.3,304.3,312.3,304.9,312.2,305.6z"/>
			<path id="XMLID_320_" class="background" d="M202.3,233.2c0,0-0.1,0.1-0.1,0.1c0,0,0-0.1,0-0.1C202.2,233.1,202.3,233.1,202.3,233.2
				C202.3,233.1,202.3,233.1,202.3,233.2z"/>
			<path id="XMLID_319_" class="background" d="M315.6,329.2c0-0.1-0.1-0.1-0.1-0.2c0-0.1,0-0.2,0-0.2c0.2-0.1,0.1,0.1,0.1,0.2
				C315.6,329,315.6,329.1,315.6,329.2z"/>
			<path id="XMLID_318_" class="background" d="M307,283.7c-0.3,0.2-0.2-0.1-0.3-0.2l0,0C307,283.4,307,283.5,307,283.7L307,283.7z"/>
			<polygon id="XMLID_317_" class="background" points="306.7,283.5 306.8,283.4 306.8,283.5 	"/>
			<path id="XMLID_312_" class="duke-body" d="M361.6,324.6c12.6,31.8,25.3,63.5,35.7,96.1c4.3,13.5,8.3,27,11.5,40.8
				c0.3,1.2,0.8,1.7,2.1,1.8c2.7,0.2,5.3,0.9,7.5,2.6c1.1,0.9,1.9,2,2.7,3.1c5.7-6.3,11.4-12.5,17-18.8c2.7-2.9,5.3-5.9,8-8.8
				c0.6-0.7,0.8-1.2,0.3-2.1c-0.7-1.2-0.4-2.6-0.2-3.9c0.5-2.8,1.2-5.6,2.2-8.3c0.8-2.3,2-4.3,3.8-6c3.6-3.5,5.3-7.9,5.3-12.9
				c0-5.6-0.6-11.1-1.9-16.5c-0.1-0.6-0.4-1.2-0.7-1.7c-0.9-1.3-0.7-2.6,0.6-3.5c6-4.2,15.2-1.1,17.4,6c0.5,1.5,0.9,3,1.3,4.6
				c0.5,1.9,0,3.7-0.5,5.5c-0.4,1.6-0.8,3.2-1.2,4.9c-0.3,1.2-0.1,1.6,1.1,2.1c1.9,0.8,4,1,6.1,1.2c1.9,0.2,3.9,0.2,5.8,0.7
				c3.3,0.9,5.3,3.3,6.6,6.3c0.3,0.6,0.2,1.2,0,1.9c-0.8,2.3-2,4.2-4.2,5.6c1.4,1.1,2.9,2.1,4,3.5c2.8,3.7,1.5,7.6-1.1,10.1
				c-1,1-2.3,1.1-3.6,1.1c-0.4,0-0.8,0-1.2,0c-0.8,0.1-0.9,0.6-0.4,1.1c0.6,0.6,1.5,1.1,1.4,2.1c0,1.1-0.6,2-1.3,2.9
				c-2.1,3-5.4,4-9.2,2.7c-2.5-0.8-4.7-2.2-7.2-3.1c-1.6-0.5-3.2-0.6-4.8,0.1c-3.4,1.4-6.9,1.5-10.5,0.7c-0.5-0.1-1-0.3-1.3-0.6
				c-0.9-1-1.6-0.4-2.3,0.2c-5.2,4.7-10.3,9.6-15.3,14.6c-3.9,3.8-7.7,7.7-11.6,11.5c-1.7,1.6-2.9,3.5-3.3,5.8c-0.6,2.9-2.4,5-4.6,6.8
				c-1.3,1-1.6,2.2-1.4,3.8c1.3,7.6,2.2,15.2,2.3,22.9c0,6.5-0.7,12.9-1.6,19.3c-1.2,8.1-2.7,16.1-5.1,23.9
				c-1.7,5.5-3.7,10.9-7.2,15.5c-2.1,2.8-4.7,5.1-8.3,5.7c-4.8,0.9-9.1-0.6-12.8-3.7c-3.2-2.6-5.9-5.8-8.2-9.2
				c-7.3-10.8-17.6-17.2-29.7-20.9c-8.1-2.5-16.4-3.4-24.8-2.6c-8.4,0.8-16.4,3-24.3,5.8c-9.9,3.6-19.2,8.4-28.1,13.8
				c-2.8,1.7-5.7,3.3-9,3.9c-4.7,0.9-9.3,0.7-13.4-2.3c-3.3-2.4-4.8-5.8-5.5-9.7c-0.8-4.8-0.3-9.6,0.3-14.4c1.2-9,3.1-17.9,5.6-26.6
				c0.3-0.9-0.2-0.9-0.8-0.7c-2.9,0.5-5.6,0-8.1-1.3c-1.6-0.8-2.9-2.2-3.7-3.8c-0.5-0.9-1-1.9-1.8-2.7c-2-2-4.3-2-6.3-0.1
				c-0.9,0.9-1.7,1.9-2.3,3c-1.9,3.4-3,7-3,10.9c-0.1,3.1-0.7,6.2-1.9,9.1c-1.3,3.3-4,4.7-7.5,3.9c-2-0.4-3.1-1.8-3.1-3.8
				c0-3.2,0.8-6.3,1.6-9.4c0.6-2.4,1.4-4.8,1.3-7.4c0-0.5-0.1-1-0.2-1.5c-0.7-2.6-2.7-3.8-5.3-2.9c-2.3,0.8-4.3,2.2-6.1,3.7
				c-3.4,2.8-7.2,3.2-11.3,2c-1-0.3-1.9-0.6-2.8-1c-2.5-1-3.1-2.7-2.1-5.2c1.7-4.5,4.7-7.4,9.5-8.6c2.6-0.6,5.1-1.4,7.6-2.4
				c0.6-0.2,1.5-0.4,1.5-1.1c0-0.8-1-0.8-1.6-1c-4.7-1.4-9.5-2.4-14.2-3.6c-4.4-1.1-5.7-2.9-4.7-7.8c0.2-1,0.7-1.9,1.2-2.7
				c1.1-1.8,2.1-2.2,4.1-1.6c1.6,0.5,3,1.2,4.5,1.9c2.8,1.5,5.5,3.1,8.4,4.5c1.1,0.5,2.1,0.9,3.3,1.1c1.6,0.3,2.3-0.2,3-1.7
				c2-4.1,5.4-6.4,9.7-7.4c0.9-0.2,1.4-0.5,1.5-1.4c0.2-1.3,0.9-2.3,2.1-3c0.8-0.5,1.6-0.5,2.5-0.1c1.2,0.6,1.5,0.5,1.8-0.9
				c0.7-3.2,1.3-6.3,2-9.5c0.5-2.3,1.2-4.6,2.4-6.7c1.2-2.2,2.9-3.7,5.2-4.5c8-3,16.2-4.3,24.8-3.7c1.2,0.1,2.5,0.2,3.7,0.1
				c0.9-0.1,1.8-0.5,2.2-1.2c1.7-3.1,4.5-3.4,7.6-2.8c2.8,0.5,2.8,0.5,4.1-1.9c9.8-18.6,21.5-36,34.4-52.6
				c14.9-19.1,31.4-36.8,48.4-54c1.5-1.6,3.1-3.1,4.6-4.7C360.9,325.1,361.1,324.7,361.6,324.6z M407.8,511.4c0.2-7.8-1-15.5-2.3-23.2
				c-1.2-6.9-2.6-13.8-4.2-20.6c-0.3-1.2-0.9-2-2-2.5c-6.2-2.9-12.7-5.4-19.1-7.7c-1-0.4-1.5-0.1-1.9,0.9c-2.7,7.6-7.7,13.4-14,18
				c-9.9,7.3-21.1,9.5-33.2,8.5c-6.1-0.5-11.9-2.1-17.4-4.6c-9.9-4.4-16.5-11.8-19.4-22.3c-0.6-2.3-1-4.7-1.1-7.2
				c-0.1-1.6-0.3-1.8-1.5-1.6c-5.1,0.8-10.1,1.7-15.1,2.8c-1.1,0.2-1.8,0.8-2.3,1.8c-3.3,7.5-6.5,15-9.5,22.7
				c-4.7,12.4-9,25-12.5,37.8c-1.8,6.8-3.3,13.7-4.4,20.7c-0.7,4.3-1.3,8.6-1,13c0.4,5.4,2.4,7,7.4,6.7c2.2-0.1,4.1-1.1,6-2.2
				c3.4-1.9,6.6-3.9,10-5.8c14-7.7,28.7-13.4,44.6-15.6c5.6-0.8,11.2-0.9,16.8-0.4c5.8,0.6,11.6,1.9,17.1,3.8
				c12.5,4.2,23,11.2,30.7,22c1.9,2.7,3.8,5.4,6.2,7.6c0.6,0.6,1.3,1.2,2,1.7c3.1,2.5,5.6,2.1,7.9-1.1c2.4-3.3,4-7.1,5.3-11
				c2.6-8,4.2-16.3,5.3-24.6C407.2,523.2,408,517.4,407.8,511.4z M336.2,413.5c-2.5-0.1-5,0.2-7.5,0.7c-9.2,2.2-16.9,6.8-22.5,14.5
				c-5.1,7.1-6.4,15.1-5.3,23.7c1.1,7.9,4.8,14.2,11.5,18.4c9.5,5.9,20,7.8,31,6.1c8.5-1.3,15.7-5.1,21.6-11.3
				c6.5-6.9,9-15.1,7.6-24.4c-1.2-8-5.4-14.2-11.6-19.2C353.9,416.1,345.4,413.6,336.2,413.5z M259.1,444.9c-0.7,0.1-1.4,0.2-2.1,0.3
				c-5.2,0.7-10.4,1.5-15.4,3.1c-4.8,1.5-8.2,4.6-9.7,9.6c-0.4,1.3-0.9,2.6-1.3,4c-0.8,2.8-1.6,5.6-2.4,8.4c-0.2,0.8-0.5,1.8,0.6,2.2
				c0.9,0.4,1.3,1.1,1.7,1.9c0.8,1.7,0.9,3.5,0.8,5.4c-0.1,1-0.4,1.9-1.3,2.5c-0.4,0.3-0.5,0.6-0.2,1.1c1.1,2,2.4,3.9,4.2,5.3
				c1.7,1.3,3.4,2.4,5,3.7c1.9,1.5,3.8,1.9,6,0.7c1-0.5,2.1-0.8,3.2-0.6c1.6,0.3,1.6,0.3,2.2-1.3c4.2-12.6,9-24.9,14.4-37
				c0.8-1.8,0.8-1.8-0.9-3c-2-1.3-3.5-2.9-3.6-5.5C260.2,444.8,259.6,444.9,259.1,444.9z"/>
			<path id="XMLID_306_" class="bottle-slogan" d="M224.7,432c-1.4-0.5-2.6-0.2-3.9,0.5c-3.2,1.8-4.8,5.5-3.7,8.5c0.8,2.1,2,2.7,4.1,1.9
				c1-0.4,2-0.9,3.1-1.3c1.1-0.3,2.2-0.4,3,0.6c0.8,0.8,1.1,1.8,0.8,3c-0.1,0.5-0.4,0.7-0.8,1c-0.6,0.5-1.1,0.9-1.6,1.4
				c-0.6,0.8-1.2,0.7-1.9,0.1c0-0.3,0.3-0.4,0.5-0.5c0.5-0.6,0.4-1.2,0.2-1.8c-0.3-0.7-0.9-0.7-1.5-0.7c-1.4,0.2-2.6,1.5-2.6,3
				c0,1.5,0.9,2.7,2.4,2.9c0.3,0,0.5,0,1,0c-1.3,2.8-2,5.6-2.6,8.4c-0.4,2.1-0.9,4.2-1.3,6.3c-0.1,0.4-0.1,0.7-0.7,0.6
				c-2.7-0.7-5,1.5-5.8,3.6c-0.1,0.4,0,0.9-0.6,1.1c-0.8,0.3-1.6,0.5-2.4,0.6c-0.4,0.1-0.3-0.5-0.4-0.8c-0.5-3.1-1-6.2-1.5-9.3
				c-1.1-6.9-2.1-13.8-3.2-20.7c-0.2-1,0.1-1.8,0.7-2.5c9-10.6,19-20.1,29.4-29.3c14-12.3,28.3-24.1,42.1-36.6
				c10.3-9.4,20-19.3,28.2-30.7c0.2-0.3,0.5-0.7,0.8-1c0.4,0.8,0.3,1.6,0.5,2.4c0.5-0.1,0.6-0.7,1.1-0.8c0.3,1.8,0.6,3.5,0.8,5.3
				c1.3,8.7,2.7,17.4,4,26c0.1,0.5,0.1,0.9-0.2,1.3c-3.1,3.9-6.2,7.7-9.3,11.6c-0.1,0.1-0.2,0.1-0.3,0.1c-0.4-0.5,0.1-0.6,0.3-0.8
				c1.7-1.9,1.7-3.9,0.5-6.1c-0.6-1-1.2-2-1.9-2.9c-1.3-1.9-2.6-3.8-3.9-5.7c-0.3-0.4-0.5-0.8,0-1.2c0.5-0.4,0.4-0.8,0.1-1.3
				c-0.4-0.5-0.7-1.1-1.1-1.8c-2.5,2.6-4.9,5.2-7.3,7.7c-1.1,1.2-1.1,1.2,0.1,2.3c0.4,0.4,0.6,0.4,1.1,0c1.4-1.4,3-2.7,4.4-4
				c0.4-0.4,0.6-0.4,0.9,0.1c1.9,2.8,4,5.4,5.4,8.4c0.4,0.8,0.6,1.7,0.5,2.7c-0.2,1.2-1.3,2.3-2.5,2.4c-1,0.1-1.7-0.4-2.1-1.3
				c0.1-0.1,0.2-0.1,0.2-0.1c1.5-0.2,2.3-1,2.1-2.3c-0.1-1.4-1.2-2.3-2.6-2.2c-1.7,0.1-3.1,2.1-2.7,3.9c0.7,3.7,4.5,5.1,7.5,2.7
				c0.3-0.2,0.5-0.8,1-0.4c-0.4,1-1.2,1.8-1.8,2.6c-4.9,6.5-9.6,13.1-14,19.8c-0.5,0.7-1,1.3-1.7,1.9c-11.3,9.8-22.6,19.6-33.9,29.3
				c-0.4,0.3-0.8,0.6-1.4,0.6c-7,0.1-13.9,1.4-20.4,4c-0.1,0-0.2,0.1-0.5,0.1c0.3-1.2,0.5-2.3,0.5-3.4c-0.1-1.2-0.5-2.2-1.4-3.1
				c-0.9-0.9-1.9-1.1-3.1-0.8c-1.2,0.3-2.2,0.9-3.3,1.4c-1.6,0.7-2.4,0.6-3.1-0.5c-0.6-1-0.3-2.3,0.9-3.3c0.3-0.2,0.7-0.5,1-0.6
				c0.6-0.3,1-0.1,1,0.6c0,0.6,0,1.2,0.7,1.4c0.7,0.2,1.2-0.2,1.6-0.7c0.8-0.9,0.7-1.9,0.4-2.9C224.9,432.6,224.6,432.4,224.7,432
				c1.1,0.6,1.7-0.2,2.3-0.9c0.3-0.3,0.6-0.6,0.9-1c1.1-1.2,1.1-1.2,2.3-0.1c2.2,2.2,3.7,4.9,5.3,7.5c0.6,0.9,0.8,2.5,1.8,2.5
				c0.9-0.1,1.9-1.2,2.6-2.1c-3.5-3-5.9-6.8-8.3-10.7c-0.3-0.5-0.4-0.9,0.1-1.4c1-1.1,2-2.3,3-3.5c1.2,1.4,1.9,3,2.8,4.4
				c0.5,0.9,1.1,1.8,2,2.5c1.5,1.1,3.1,1.3,4.7,0.4c2.7-1.4,4.1-4.3,3.5-7.3c-0.7-3.7-3-6.6-4.8-9.8c-1.1,0.8-2,1.7-2.8,2.6
				c-0.5,0.5-0.5,0.8,0.1,1.3c1.9,1.6,3.4,3.5,4.5,5.7c0.6,1.2,1,2.4,0.6,3.7c-0.3,1.2-1.1,2-2.3,2.4c-1.2,0.4-2-0.4-2.6-1.3
				c-0.9-1.2-1.5-2.6-2.1-4c-0.5-1.3-0.9-2.6-1.6-3.9c-0.6,0.6-1.1,1.2-1.7,1.8c-0.3-0.5-0.6-0.9-0.9-1.4c-3,3.5-6.3,6.9-10,9.7
				c-0.5,0.4-0.3,0.6-0.1,1C224.1,430.9,224.9,431.2,224.7,432z M266.7,402.8c0.5-0.9,0.9-1.6,1.2-2.3c0.4-0.8,0.6-1.7,0.3-2.7
				c-0.7-2.2-2.6-3.1-4.8-2.3c-2.2,0.9-3.9,2.6-5.7,4.2c-0.9,0.8-1,1.4-0.4,2.4c0.5,0.9,0.9,1,1.5,0.3c0.6-0.7,1.1-0.7,1.5,0.2
				c0.1,0.2,0.3,0.4,0.4,0.6c1.2,1.8,2.4,3.5,3.5,5.3c0.6,1,1.3,0.2,1.8-0.1c0.8-0.3,0-0.8-0.2-1c-0.6-0.7-0.4-1.1,0.2-1.5
				c0.5-0.4,1-0.7,1.7-1c1.1-0.4,2-0.1,2.6,1c0.5,1,0.5,2.2,0.4,3.3c-0.6,4.1-4.1,5.4-7.4,2.9c1-1.1,1.2-2.3,0.3-3.4
				c-0.5-0.7-1.2-1.2-2.2-0.7c-1,0.5-1.5,1.8-1.1,3.2c0.1,0.2,0.1,0.5,0.2,0.7c0.8,1.6,2.1,2.8,3.7,3.6c1.4,0.6,2.8,0.6,4.2,0
				c3.4-1.5,6-6.4,5.3-10c-0.3-1.6-1.4-2.6-2.9-3C269.6,402.1,268.2,402.5,266.7,402.8z M254.7,412.8c0.4-0.8,0.9-1.6,1.2-2.4
				c0.5-1,0.6-2,0.1-3c-0.9-2-2.8-2.7-4.8-1.8c-2.3,1-4.1,2.8-5.9,4.6c-0.5,0.5-0.3,1.9,0.5,2.6c0.6,0.5,0.9-0.2,1.2-0.5
				c0.6-0.5,0.8-0.5,1.3,0.2c1.3,2,2.7,4,4,6c0.6,1,1.3,0.2,1.8,0c0.8-0.3,0.1-0.8-0.1-1c-0.6-0.7-0.4-1.2,0.3-1.6
				c0.4-0.3,0.9-0.6,1.3-0.8c1.4-0.7,2.5-0.2,3,1.3c0.8,2,0.1,4.9-1.6,6.3c-1.3,1.1-3.1,1.1-5.3-0.2c-0.1-0.1-0.2-0.1-0.3-0.2
				c1.1-1.1,1.2-2.3,0.4-3.4c-0.6-0.9-1.5-1.2-2.3-0.7c-1,0.5-1.4,1.9-1,3.3c0.1,0.2,0.1,0.5,0.2,0.7c0.8,1.6,2,2.8,3.6,3.5
				c1.5,0.7,2.9,0.6,4.4-0.1c3.2-1.6,5.7-6.1,5.2-9.7c-0.3-1.8-1.3-2.9-3.1-3.3C257.4,412.2,256.1,412.6,254.7,412.8z M278.1,404.5
				c0.1-0.4,0.3-0.8,0.3-1.1c0.2-1.2-0.4-2-1.3-2.7c-0.6-0.5-1.3-0.5-1.9,0c-0.8,0.6-1.5,1.3-1.3,2.4c0.3,1.5,1.1,2.7,2.4,3.4
				c1.2,0.7,2.6,0.4,3.5-0.5c1.4-1.4,1.7-3.1,1.6-5c-0.1-2.1-0.8-4.1-1.4-6.2c-1-3.8-2-7.5-3.1-11.6c-0.7,0.7-1.2,1.4-1.8,1.9
				c-0.6,0.5-0.7,0.9-0.3,1.6c1.6,2.9,2.6,6.1,3.3,9.3c0.1,0.4,0.3,0.8,0.1,1.4c-2.5-2.3-4.8-4.6-6.4-7.6c-0.8,0.9-1.6,1.8-2.4,2.6
				c-0.6,0.6-0.4,0.8,0.2,1.2c2,1.3,4,2.7,5.8,4.2c1.5,1.3,3,2.6,3.9,4.4C280.2,403.7,279.8,404.3,278.1,404.5z M289.4,379.7
				c-0.1,0-0.2,0-0.3,0.1c-0.7,0.6-1.4,1.1-2,1.7c-1.5,1.2-1.5,1.2-0.3,2.8c0.3,0.3,0.8,0.7,0.4,1.2c-1,1.3-2,2.6-3.4,3.8
				c-0.1-0.3-0.1-0.5-0.1-0.7c-0.3-2.9-0.7-5.8-1.1-8.7c-0.1-0.6-0.3-1.1-0.6-1.5c-0.2-0.3-0.6-0.4-0.9-0.3c-0.4,0.2-0.2,0.5-0.2,0.8
				c0.1,0.7,0.2,1.5,0.4,2.2c0.6,3,1.1,6,1.7,9c0.2,1,0.4,1.1,1.2,0.4c1.1-1.1,2.2-2.2,3.3-3.3c0.6-0.7,1-0.7,1.5,0.2
				c1.3,2.3,2.2,4.7,2.9,7.2c0.2,0.8,0.4,0.9,1,0.3c0.6-0.7,1.3-1.3,1.9-2c0.3-0.3,0.5-0.5,0.2-0.9c-1.4-2-2.3-4.4-3.5-6.5
				c-0.5-0.8-0.6-1.4,0.2-2c0.5-0.3,0.3-0.7,0-1.1c-0.3-0.5-0.6-0.2-0.9,0c-0.5,0.4-0.7,0.2-0.8-0.3
				C289.8,381.2,289.6,380.4,289.4,379.7z"/>
			<path id="XMLID_300_" class="bottle" d="M241.3,560.6c-5,0.7-9.9,0.8-14.9,0.8c-6-0.1-10.7-2.5-14.3-7.2c-1.2-1.6-1.9-3.5-2.7-5.3
				c-1.4-3-2.7-6-4.1-8.9c-0.2-0.5-0.6-1-0.9-1.4c-1-1.2-1.6-2.6-1.1-4.2c0.1-0.5-0.1-1-0.2-1.4c-1.5-5.3-2.9-10.7-3.9-16.1
				c-0.5-2.8-1-5.6-0.9-8.4c0.3-0.3,0.6-0.6,1.2-0.8c0.4,9.5,3,18.5,5.2,27.4c0.3-0.6,0.2-1.6-0.1-2.5c-1.2-4.2-2.4-8.4-3.3-12.7
				c-0.8-3.8-1.3-7.7-1.6-11.6c0-0.7,0.2-1.2,0.8-1.5c0.9-0.5,1.8-1.6,2.5-1.3c0.7,0.3,0.2,1.7,0.3,2.7c0.2,3,0.4,6.1,1.1,9
				c0.4,1.7,0.2,3.3,0,5c-0.2,1.3-0.2,2.5,0.1,3.8c0.3,1.4,1.1,2.6,2.3,3.3c0.6,0.3,0.9,0.8,1.1,1.5c0.4,1.2,0.8,2.3,1.4,3.4
				c0-1.4-0.7-2.6-0.9-4.1c1.5,0.4,3,0.4,4.5,0c2.6-0.6,4.2-2.4,5.1-4.8c1.2-3.2,2-6.5,2.1-9.9c0.1-4.4,1.4-8.4,4.1-11.9
				c0.3-0.4,0.6-0.7,1-1c1.2-1,2.3-0.9,3.4,0.1c0.7,0.6,1.2,1.3,1.6,2.1c1.9,3.8,5.1,5.7,9.2,6.3c1,0.2,2,0.3,3.1,0.2
				c-1.2,4.7-2.4,9.3-3.3,14c-1.4,7.2-2.8,14.4-2.7,21.7c0.1,4.3,0.8,8.4,3.3,12C240.3,559.3,240.9,559.9,241.3,560.6z M214.8,555.5
				c0-0.1,0.2,0.1,0.2-0.1C214.9,555.4,214.8,555.4,214.8,555.5c0.1-0.2,0.2-0.4-0.2-0.4c0.2-0.2,0-0.3-0.1-0.4
				c-0.4-0.4-0.6-1-1.1-1.3c-0.1-0.3-0.2-0.6-0.5-0.7c-2-4.4-4-8.8-6-13.3c-0.1-0.3-0.2-0.7-0.8-0.7c1.9,4.9,3.7,9.7,6.6,14
				c0.2,0.2,0.4,0.5,0.5,0.7c0.3,0.5,0.6,1,1,1.3c0,0.1,0.1,0.2,0.3,0.2C214.7,555.2,214.7,555.4,214.8,555.5z M218.6,558.1
				c0.1,0,0.2,0.1,0.2,0.1c0.1-0.1,0-0.2-0.1-0.2c-0.4-0.8-1.1-1-1.8-1.2c0,0.1-0.1,0.2-0.1,0.3C217.4,557.4,218,557.7,218.6,558.1z
				 M211.6,539.9c-0.5-1.2-1-2.5-1.4-3.7c-0.1,0-0.2,0.1-0.3,0.1C210.3,537.6,210.7,538.8,211.6,539.9z M212.3,541.7
				c0.2,0.5,0.3,1,0.6,1.6C213,542.5,212.7,542.1,212.3,541.7z"/>
			<path id="XMLID_292_" class="bottle" d="M339.5,542.6c-3.5,1.5-7,2.9-10.7,3.6c-1.9,0.4-3.6,1.4-5.5,1.3c-0.5,0-1,0.3-1.4,0.6
				c-0.2,0.2-0.5,0.4-0.8,0.3c-2.4-0.6-4.5,1.6-6.9,0.9c-0.4-0.1-0.7,0.2-1.1,0.5c-1.1,0.9-2.3,1.2-3.7,0.7c-0.6-0.2-1.1-0.2-1.6,0.2
				c-1,0.9-2.2,0.9-3.4,0.7c-0.8-0.2-1.4-0.1-2.1,0.3c-1.3,0.7-2.6,1.2-4.1,0.7c-0.6-0.2-1.1,0-1.6,0.3c-1.3,0.9-2.7,1.1-4.2,0.8
				c-0.8-0.2-1.4,0.1-2,0.5c-1,0.7-2.1,1-3.3,0.6c-1.1-0.4-2-0.2-2.9,0.4c-1.2,0.8-2.5,0.8-3.8,0.5c-0.9-0.2-1.6-0.1-2.4,0.5
				c-1.1,0.7-2.3,0.9-3.5,0.4c1-0.7,2-1.3,3.2-1.5c1.2-0.2,1.8-1.3,2.8-1.8c3.4-1.6,6.8-3.2,10.2-4.6c7.3-2.9,14.8-5.3,22.5-6.6
				C322.1,540.3,330.8,540.4,339.5,542.6z M302.2,550.4c0.6-0.1,1.3,0.1,1.9-0.4C303.3,549.6,302.7,549.7,302.2,550.4z M293.5,552.1
				c0.6,0.6,1.2,0.7,1.9-0.1C294.6,552,294,552,293.5,552.1z M320.9,546.8c-0.8,0.3-1.7,0-2.3,0.3C319.3,547.5,320.1,547,320.9,546.8z
				 M301,551c-0.4,0-0.8,0.1-1.3,0.1C300.3,551.7,300.7,551.4,301,551z M311.8,549.2c-0.4,0-0.8-0.1-1.2,0.2
				C311.1,549.7,311.5,549.4,311.8,549.2z M324.5,546.2C324.5,546.2,324.5,546.1,324.5,546.2c-0.2-0.1-0.4-0.1-0.5-0.1
				c-0.1,0-0.1,0.1,0,0.1C324.1,546.2,324.3,546.2,324.5,546.2z"/>
			<path id="XMLID_291_" class="bottle" d="M191.4,350c-0.4,0.1-0.8-0.2-0.9-0.8c-0.1-0.7,0.6-0.7,1-0.7c12.4-1.6,24.7-3.6,37.1-5.5
				c10.9-1.7,21.8-3.4,32.6-5.1c12.9-2.1,25.7-4.3,38.5-6.8c1.3-0.3,2.7-0.5,4-0.7c0.5-0.1,1.3-0.4,1.4,0.4c0.1,0.7-0.5,0.9-1.2,1.1
				c-3.9,0.9-7.8,1.6-11.7,2.3c-9.2,1.7-18.5,3.3-27.7,4.9c-8.9,1.6-17.8,3.1-26.8,4.4c-10.8,1.6-21.6,3.2-32.3,4.7
				C200.8,348.8,196.2,349.4,191.4,350z"/>
			<path id="XMLID_290_" class="bottle" d="M249.7,176.8c-14.1,1.8-28.2,3.6-42.3,5.3c0-0.1,0-0.2,0-0.3c14-2.7,28.1-4.5,42.4-5.4
				C249.8,176.6,249.8,176.7,249.7,176.8z"/>
			<path id="XMLID_289_" class="bottle" d="M206.4,512c-0.3-2.4-0.6-4.8-0.9-7.2C207.4,505.3,207.7,507.8,206.4,512z"/>
			<path id="XMLID_288_" class="bottle" d="M207.2,458.3c-0.5,0.3-0.7,0.4-0.9,0.3c0,0,0-0.2,0-0.2C206.5,458.4,206.7,458.4,207.2,458.3z
				"/>
			<path id="XMLID_287_" class="bottle" d="M208.9,471.5c-0.1,0-0.2,0.1-0.2,0.1c-0.1,0-0.1-0.1-0.2-0.1c0.1,0,0.1-0.1,0.2-0.1
				C208.8,471.4,208.9,471.5,208.9,471.5z"/>
			<path id="XMLID_286_" class="bottle" d="M208.9,469.6C208.9,469.6,208.8,469.7,208.9,469.6c-0.1,0.1-0.2,0-0.2,0
				C208.7,469.6,208.8,469.5,208.9,469.6C208.8,469.5,208.9,469.6,208.9,469.6z"/>
			<path id="XMLID_285_" class="bottle" d="M206.7,182.3C206.7,182.3,206.8,182.3,206.7,182.3C206.7,182.3,206.7,182.3,206.7,182.3
				C206.7,182.3,206.7,182.3,206.7,182.3z"/>
			<path id="XMLID_284_" class="bottle" d="M195.3,477c0,0.1,0,0.2,0,0.3c-0.1,0-0.2-0.1-0.3-0.1C195.2,477.1,195.2,477.1,195.3,477z"/>
			<path id="XMLID_283_" class="duke-pants" d="M407.8,511.4c0.1,6-0.6,11.9-1.4,17.7c-1.1,8.3-2.8,16.6-5.3,24.6c-1.2,3.9-2.8,7.7-5.3,11
				c-2.3,3.2-4.8,3.5-7.9,1.1c-0.7-0.5-1.3-1.1-2-1.7c-2.4-2.2-4.3-5-6.2-7.6c-7.8-10.8-18.2-17.8-30.7-22c-5.6-1.9-11.3-3.2-17.1-3.8
				c-5.6-0.6-11.2-0.4-16.8,0.4c-15.9,2.2-30.6,7.9-44.6,15.6c-3.4,1.8-6.7,3.9-10,5.8c-1.9,1.1-3.8,2.1-6,2.2c-5,0.3-7-1.3-7.4-6.7
				c-0.3-4.4,0.3-8.7,1-13c1.1-7,2.5-13.9,4.4-20.7c3.5-12.8,7.8-25.4,12.5-37.8c2.9-7.6,6.1-15.2,9.5-22.7c0.5-1,1.2-1.6,2.3-1.8
				c5-1.1,10-2,15.1-2.8c1.2-0.2,1.5,0,1.5,1.6c0.1,2.4,0.5,4.8,1.1,7.2c2.8,10.6,9.5,17.9,19.4,22.3c5.5,2.5,11.3,4.1,17.4,4.6
				c12.1,1.1,23.3-1.2,33.2-8.5c6.3-4.7,11.3-10.5,14-18c0.4-1,0.9-1.2,1.9-0.9c6.5,2.3,12.9,4.8,19.1,7.7c1.1,0.5,1.7,1.2,2,2.5
				c1.6,6.8,3,13.7,4.2,20.6C406.9,495.9,408,503.6,407.8,511.4z"/>
			<path id="XMLID_282_" class="duke-nose" d="M336.2,413.5c9.2,0.1,17.7,2.6,24.9,8.5c6.1,5,10.4,11.3,11.6,19.2c1.4,9.3-1.1,17.6-7.6,24.4
				c-5.9,6.2-13.2,10.1-21.6,11.3c-11,1.6-21.5-0.2-31-6.1c-6.8-4.2-10.4-10.6-11.5-18.4c-1.2-8.5,0.1-16.6,5.3-23.7
				c5.6-7.7,13.3-12.4,22.5-14.5C331.2,413.7,333.7,413.4,336.2,413.5z"/>
			<path id="XMLID_277_" class="background" d="M259.1,444.9c0.5,0,1.1-0.2,1.1,0.7c0.1,2.5,1.6,4.2,3.6,5.5c1.7,1.2,1.8,1.1,0.9,3
				c-5.4,12.1-10.2,24.4-14.4,37c-0.5,1.6-0.6,1.6-2.2,1.3c-1.2-0.2-2.2,0.1-3.2,0.6c-2.2,1.1-4.1,0.8-6-0.7c-1.6-1.3-3.3-2.5-5-3.7
				c-1.8-1.4-3.2-3.2-4.2-5.3c-0.3-0.5-0.2-0.7,0.2-1.1c0.8-0.6,1.2-1.5,1.3-2.5c0.2-1.9,0.1-3.7-0.8-5.4c-0.4-0.8-0.8-1.5-1.7-1.9
				c-1-0.4-0.8-1.4-0.6-2.2c0.8-2.8,1.6-5.6,2.4-8.4c0.4-1.3,0.9-2.6,1.3-4c1.5-4.9,4.8-8,9.7-9.6c5-1.6,10.2-2.5,15.4-3.1
				C257.7,445.1,258.4,445,259.1,444.9z M231.8,483.3c0.4,0.8,0.6,1.6,1.7,1.4c4.5-0.6,9-1.1,13.5-1.7c1.3-0.2,2.6-0.3,3.9-0.5
				c1-0.1,1.1-1,1.1-1.6c0-0.6-0.8-0.2-1.2-0.1c-4.6,0.6-9.2,1.2-13.7,1.8C235.3,482.9,233.6,483.1,231.8,483.3z M249.8,487.5
				c-4.1,0.6-8,1.1-12.1,1.7c1.1,0.8,2,1.4,2.9,2.1c1,0.7,2,0.9,3.1,0.4c1.5-0.7,3-1.2,4.6-0.9c0.4,0.1,0.5-0.2,0.5-0.5
				C249.2,489.4,249.4,488.5,249.8,487.5z M238.8,451.7c-1.5,0.5-2.8,1.7-3.3,3C236.6,453.7,237.6,452.7,238.8,451.7z"/>
			<path id="XMLID_276_" class="background" d="M224.7,432c0.2-0.8-0.6-1.1-0.9-1.8c-0.1-0.4-0.3-0.6,0.1-1c3.7-2.8,6.9-6.1,10-9.7
				c0.3,0.4,0.6,0.9,0.9,1.4c0.6-0.6,1.1-1.1,1.7-1.8c0.7,1.3,1.1,2.6,1.6,3.9c0.6,1.4,1.1,2.8,2.1,4c0.7,0.8,1.4,1.6,2.6,1.3
				c1.2-0.4,2-1.2,2.3-2.4c0.3-1.3-0.1-2.5-0.6-3.7c-1.1-2.2-2.6-4.1-4.5-5.7c-0.6-0.5-0.6-0.8-0.1-1.3c0.9-0.9,1.7-1.8,2.8-2.6
				c1.8,3.2,4,6.1,4.8,9.8c0.6,3-0.8,5.9-3.5,7.3c-1.7,0.9-3.2,0.7-4.7-0.4c-0.9-0.7-1.5-1.6-2-2.5c-0.8-1.5-1.6-3.1-2.8-4.4
				c-1,1.2-2,2.3-3,3.5c-0.4,0.5-0.4,0.9-0.1,1.4c2.3,3.9,4.8,7.7,8.3,10.7c-0.8,0.9-1.7,2.1-2.6,2.1c-1,0.1-1.2-1.6-1.8-2.5
				c-1.6-2.6-3.1-5.3-5.3-7.5c-1.1-1.1-1.1-1.1-2.3,0.1c-0.3,0.3-0.6,0.6-0.9,1C226.4,431.9,225.8,432.6,224.7,432L224.7,432z"/>
			<path id="XMLID_273_" class="background" d="M266.7,402.8c1.5-0.3,2.9-0.6,4.3-0.3c1.5,0.4,2.6,1.4,2.9,3c0.7,3.6-1.9,8.6-5.3,10
				c-1.4,0.6-2.8,0.7-4.2,0c-1.6-0.8-2.9-2-3.7-3.6c-0.1-0.2-0.2-0.4-0.2-0.7c-0.4-1.4,0.1-2.7,1.1-3.2c1-0.4,1.6,0,2.2,0.7
				c0.9,1.1,0.8,2.3-0.3,3.4c3.2,2.5,6.8,1.2,7.4-2.9c0.2-1.1,0.2-2.2-0.4-3.3c-0.6-1.1-1.4-1.4-2.6-1c-0.6,0.2-1.1,0.6-1.7,1
				c-0.6,0.4-0.8,0.9-0.2,1.5c0.2,0.2,0.9,0.7,0.2,1c-0.5,0.2-1.2,1-1.8,0.1c-1.2-1.8-2.3-3.5-3.5-5.3c-0.1-0.2-0.3-0.4-0.4-0.6
				c-0.4-0.9-0.9-0.9-1.5-0.2c-0.7,0.7-1,0.6-1.5-0.3c-0.6-1-0.4-1.7,0.4-2.4c1.8-1.6,3.4-3.3,5.7-4.2c2.1-0.8,4.1,0.1,4.8,2.3
				c0.3,0.9,0.1,1.8-0.3,2.7C267.6,401.2,267.1,401.9,266.7,402.8z M264.1,404.3c0.7-0.8,1.2-1.6,1.5-2.5c0.3-1.2-0.1-2.8-0.9-3.1
				c-1.2-0.4-1.9,0.4-2.7,1c-0.4,0.3-0.5,0.6-0.2,1.1C262.5,402,263.3,403.1,264.1,404.3z"/>
			<path id="XMLID_270_" class="background" d="M254.7,412.8c1.4-0.2,2.7-0.6,4.1-0.3c1.8,0.4,2.9,1.5,3.1,3.3c0.5,3.6-1.9,8.1-5.2,9.7
				c-1.4,0.7-2.9,0.8-4.4,0.1c-1.6-0.8-2.8-2-3.6-3.5c-0.1-0.2-0.2-0.4-0.2-0.7c-0.4-1.4,0-2.8,1-3.3c0.8-0.4,1.6-0.2,2.3,0.7
				c0.8,1.2,0.7,2.3-0.4,3.4c0.1,0.1,0.2,0.1,0.3,0.2c2.2,1.3,4,1.4,5.3,0.2c1.6-1.4,2.4-4.2,1.6-6.3c-0.6-1.5-1.6-1.9-3-1.3
				c-0.5,0.2-0.9,0.5-1.3,0.8c-0.7,0.4-0.9,0.9-0.3,1.6c0.2,0.2,0.9,0.7,0.1,1c-0.6,0.2-1.2,1-1.8,0c-1.3-2-2.7-4-4-6
				c-0.4-0.7-0.7-0.7-1.3-0.2c-0.3,0.3-0.6,1-1.2,0.5c-0.8-0.6-1-2.1-0.5-2.6c1.8-1.8,3.6-3.6,5.9-4.6c2-0.9,3.9-0.2,4.8,1.8
				c0.5,1,0.4,2-0.1,3C255.6,411.2,255.1,412,254.7,412.8z M252,414.3c1.7-1.6,2-3.5,1.1-5c-0.4-0.7-1-0.8-1.6-0.6
				c-0.8,0.3-1.6,0.8-2,1.7c0,0.1,0.1,0.3,0.2,0.4C250.5,412,251.3,413.2,252,414.3z"/>
			<path id="XMLID_269_" class="background" d="M303.4,386.4c-0.5-0.4-0.7,0.2-1,0.4c-3,2.4-6.8,1-7.5-2.7c-0.4-1.9,1-3.8,2.7-3.9
				c1.4-0.1,2.5,0.8,2.6,2.2c0.1,1.3-0.7,2.1-2.1,2.3c-0.1,0-0.1,0.1-0.2,0.1c0.4,1,1.1,1.4,2.1,1.3c1.2-0.1,2.3-1.2,2.5-2.4
				c0.1-0.9-0.1-1.8-0.5-2.7c-1.5-3-3.5-5.7-5.4-8.4c-0.3-0.5-0.5-0.4-0.9-0.1c-1.5,1.4-3,2.7-4.4,4c-0.4,0.4-0.6,0.4-1.1,0
				c-1.2-1.2-1.2-1.1-0.1-2.3c2.4-2.5,4.8-5.1,7.3-7.7c0.4,0.7,0.7,1.2,1.1,1.8c0.3,0.5,0.4,0.9-0.1,1.3c-0.5,0.4-0.3,0.8,0,1.2
				c1.3,1.9,2.6,3.8,3.9,5.7c0.6,1,1.3,1.9,1.9,2.9c1.3,2.1,1.2,4.1-0.5,6.1C303.6,385.8,303,386,303.4,386.4L303.4,386.4z"/>
			<path id="XMLID_268_" class="background" d="M278.1,404.5c1.7-0.1,2.1-0.8,1.5-2.2c-0.9-1.8-2.4-3.1-3.9-4.4c-1.8-1.6-3.8-2.9-5.8-4.2
				c-0.6-0.4-0.8-0.6-0.2-1.2c0.8-0.8,1.6-1.7,2.4-2.6c1.6,3,3.9,5.3,6.4,7.6c0.2-0.6,0-1-0.1-1.4c-0.7-3.2-1.7-6.4-3.3-9.3
				c-0.4-0.7-0.3-1.1,0.3-1.6c0.6-0.5,1.1-1.1,1.8-1.9c1.1,4.1,2.1,7.8,3.1,11.6c0.5,2,1.2,4.1,1.4,6.2c0.1,1.8-0.1,3.6-1.6,5
				c-1,0.9-2.4,1.2-3.5,0.5c-1.3-0.8-2.1-2-2.4-3.4c-0.2-1.1,0.4-1.8,1.3-2.4c0.6-0.4,1.3-0.4,1.9,0c0.8,0.7,1.4,1.5,1.3,2.7
				C278.4,403.7,278.2,404,278.1,404.5z"/>
			<path id="XMLID_267_" class="background" d="M289.4,379.7c0.2,0.8,0.3,1.5,0.5,2.3c0.1,0.5,0.3,0.7,0.8,0.3c0.3-0.2,0.6-0.5,0.9,0
				c0.2,0.4,0.5,0.8,0,1.1c-0.9,0.6-0.7,1.2-0.2,2c1.2,2.1,2.1,4.5,3.5,6.5c0.3,0.4,0,0.7-0.2,0.9c-0.7,0.6-1.3,1.3-1.9,2
				c-0.5,0.6-0.8,0.5-1-0.3c-0.6-2.5-1.6-4.9-2.9-7.2c-0.5-0.9-0.8-0.8-1.5-0.2c-1.1,1.1-2.2,2.2-3.3,3.3c-0.8,0.7-1,0.7-1.2-0.4
				c-0.6-3-1.1-6-1.7-9c-0.1-0.7-0.2-1.5-0.4-2.2c0-0.3-0.3-0.6,0.2-0.8c0.4-0.1,0.7,0,0.9,0.3c0.3,0.5,0.5,1,0.6,1.5
				c0.5,2.9,0.8,5.8,1.1,8.7c0,0.2,0.1,0.4,0.1,0.7c1.4-1.1,2.4-2.4,3.4-3.8c0.4-0.6-0.1-0.9-0.4-1.2c-1.1-1.6-1.2-1.6,0.3-2.8
				c0.7-0.6,1.4-1.1,2-1.7C289.2,379.7,289.3,379.7,289.4,379.7z"/>
			<path id="XMLID_266_" class="background" d="M212.8,552.8c-2.9-4.3-4.7-9.2-6.6-14c0.6,0,0.6,0.4,0.8,0.7c2,4.4,4,8.8,6,13.3
				C212.9,552.8,212.9,552.8,212.8,552.8z"/>
			<path id="XMLID_265_" class="background" d="M211.6,539.9c-0.9-1.1-1.3-2.3-1.7-3.6c0.1,0,0.2-0.1,0.3-0.1
				C210.7,537.4,211.1,538.7,211.6,539.9z"/>
			<path id="XMLID_264_" class="background" d="M218.6,558.1c-0.6-0.4-1.2-0.7-1.8-1.1c0-0.1,0.1-0.2,0.1-0.3c0.7,0.3,1.4,0.4,1.8,1.2
				C218.7,558,218.6,558.1,218.6,558.1z"/>
			<path id="XMLID_263_" class="background" d="M212.3,541.7c0.5,0.4,0.8,0.8,0.6,1.6C212.6,542.6,212.5,542.2,212.3,541.7z"/>
			<path id="XMLID_262_" class="background" d="M213.4,553.4c0.5,0.3,0.7,0.9,1.1,1.3c-0.1,0-0.1,0.1-0.2,0.1c-0.5-0.3-0.8-0.8-1-1.3
				C213.4,553.5,213.4,553.5,213.4,553.4z"/>
			<path id="XMLID_261_" class="background" d="M213,552.7c0.3,0.2,0.4,0.4,0.5,0.7c0,0-0.1,0.1-0.1,0.1c-0.2-0.2-0.4-0.5-0.5-0.7
				C212.9,552.8,212.9,552.8,213,552.7z"/>
			<path id="XMLID_260_" class="background" d="M214.6,555.1c-0.2,0-0.2-0.1-0.3-0.2c0.1-0.1,0.1-0.1,0.2-0.1
				C214.6,554.9,214.8,555,214.6,555.1L214.6,555.1z"/>
			<path id="XMLID_259_" class="background" d="M214.6,555.1c0.4,0,0.2,0.2,0.2,0.4c0,0,0,0,0,0C214.7,555.4,214.7,555.2,214.6,555.1
				C214.6,555.1,214.6,555.1,214.6,555.1z"/>
			<path id="XMLID_258_" class="background" d="M214.8,555.5c0.1,0,0.1-0.1,0.2-0.1C215,555.6,214.8,555.4,214.8,555.5
				C214.8,555.5,214.8,555.5,214.8,555.5z"/>
			<path id="XMLID_257_" class="background" d="M218.7,558c0.1,0,0.2,0.1,0.1,0.2c0,0-0.2,0-0.2-0.1C218.6,558.1,218.7,558,218.7,558z"/>
			<path id="XMLID_256_" class="background" d="M302.2,550.4c0.5-0.7,1.1-0.8,1.9-0.4C303.5,550.5,302.8,550.2,302.2,550.4z"/>
			<path id="XMLID_255_" class="background" d="M293.5,552.1c0.6,0,1.1-0.1,1.9-0.1C294.7,552.7,294.1,552.7,293.5,552.1z"/>
			<path id="XMLID_254_" class="background" d="M320.9,546.8c-0.8,0.1-1.6,0.7-2.3,0.3C319.2,546.8,320.1,547.2,320.9,546.8z"/>
			<path id="XMLID_253_" class="background" d="M301,551c-0.4,0.4-0.7,0.7-1.3,0.1C300.2,551.1,300.6,551,301,551z"/>
			<path id="XMLID_252_" class="background" d="M311.8,549.2c-0.3,0.2-0.6,0.5-1.2,0.2C311,549.1,311.4,549.2,311.8,549.2z"/>
			<path id="XMLID_251_" class="background" d="M324.5,546.2c-0.2,0-0.4,0-0.6,0c-0.1,0-0.1-0.1,0-0.1C324.1,546,324.3,546.1,324.5,546.2
				C324.5,546.1,324.5,546.2,324.5,546.2z"/>
			<path id="XMLID_250_" class="bottle" d="M231.8,483.3c1.8-0.2,3.6-0.5,5.3-0.7c4.6-0.6,9.2-1.2,13.7-1.8c0.4-0.1,1.1-0.4,1.2,0.1
				c0,0.6-0.1,1.5-1.1,1.6c-1.3,0.2-2.6,0.3-3.9,0.5c-4.5,0.6-9,1.1-13.5,1.7C232.4,484.9,232.2,484.1,231.8,483.3z"/>
			<path id="XMLID_249_" class="bottle" d="M249.8,487.5c-0.3,1-0.6,1.9-0.9,2.7c-0.1,0.2-0.1,0.5-0.5,0.5c-1.7-0.3-3.2,0.3-4.6,0.9
				c-1.2,0.5-2.1,0.4-3.1-0.4c-0.9-0.7-1.8-1.3-2.9-2.1C241.8,488.6,245.7,488.1,249.8,487.5z"/>
			<path id="XMLID_248_" class="bottle" d="M238.8,451.7c-1.2,1.1-2.2,2-3.3,3C236,453.4,237.3,452.2,238.8,451.7z"/>
			<path id="XMLID_247_" class="bottle-slogan" d="M264.1,404.3c-0.8-1.2-1.6-2.3-2.3-3.4c-0.3-0.5-0.2-0.8,0.2-1.1c0.8-0.6,1.6-1.5,2.7-1
				c0.8,0.3,1.2,1.9,0.9,3.1C265.3,402.7,264.8,403.5,264.1,404.3z"/>
			<path id="XMLID_246_" class="bottle-slogan" d="M252,414.3c-0.8-1.2-1.6-2.3-2.3-3.4c-0.1-0.1-0.2-0.3-0.2-0.4c0.4-0.9,1.2-1.3,2-1.7
				c0.6-0.3,1.2-0.1,1.6,0.6C254.1,410.9,253.7,412.7,252,414.3z"/>
		</g>
	</g>
</svg>
